<?xml version="1.0" standalone="no"?>
<!DOCTYPE svg PUBLIC "-//W3C//DTD SVG 1.1//EN" "http://www.w3.org/Graphics/SVG/1.1/DTD/svg11.dtd" >
<svg xmlns="http://www.w3.org/2000/svg">
<metadata>Generated by IcoMoon</metadata>
<defs>
<font id="icon-ants" horiz-adv-x="1024">
<font-face units-per-em="1024" ascent="960" descent="-64" />
<missing-glyph horiz-adv-x="1024" />
<glyph unicode="&#x20;" horiz-adv-x="512" d="" />
<glyph unicode="&#x229e;" glyph-name="add-square" d="M910.336 960h-796.672c-62.464 0-113.664-51.2-113.664-113.664v-796.672c0-62.464 51.2-113.664 113.664-113.664h796.672c62.464 0 113.664 51.2 113.664 113.664v796.672c0 62.464-51.2 113.664-113.664 113.664zM768 396.8h-204.8v-204.8h-102.4v204.8h-204.8v102.4h204.8v204.8h102.4v-204.8h204.8v-102.4z" />
<glyph unicode="&#x229f;" glyph-name="minus-square" d="M910.336 960h-796.672c-62.464 0-113.664-51.2-113.664-113.664v-796.672c0-62.464 51.2-113.664 113.664-113.664h796.672c62.464 0 113.664 51.2 113.664 113.664v796.672c0 62.464-51.2 113.664-113.664 113.664zM768 396.8h-512v102.4h512v-102.4z" />
<glyph unicode="&#x2300;" glyph-name="invisible" d="M504.206 610.175l146.585-146.585 0.698 7.678c0 77.016-62.589 139.605-139.605 139.605l-7.678-0.698zM511.884 703.941c128.436 0 232.675-104.239 232.675-232.675 0-30.015-6.049-58.634-16.519-84.925l136.115-136.115c70.267 58.634 125.644 134.485 159.847 221.040-80.737 204.287-279.209 349.012-512.116 349.012-65.15 0-127.505-11.633-185.441-32.574l100.515-100.282c26.289 10.237 54.908 16.519 84.923 16.519zM46.534 830.75l127.274-127.274c-76.783-60.030-137.511-139.838-173.808-232.208 80.506-204.287 279.209-349.012 511.884-349.012 72.13 0 141.001 13.96 204.056 39.323l19.778-19.778 135.65-135.881 59.332 59.099-824.834 825.063-59.332-59.332zM303.873 573.644l71.896-71.896c-2.094-10.006-3.49-20.009-3.49-30.48 0-77.016 62.589-139.605 139.605-139.605 10.47 0 20.476 1.396 30.248 3.49l71.896-71.896c-30.946-15.357-65.381-24.664-102.145-24.664-128.436 0-232.675 104.239-232.675 232.675 0 36.762 9.308 71.198 24.664 102.376z" />
<glyph unicode="&#x23f4;" glyph-name="caret-left" horiz-adv-x="559" d="M0 448l558.545 512v-1024z" />
<glyph unicode="&#x23f5;" glyph-name="caret-right" horiz-adv-x="559" d="M558.545 448l-558.545 512v-1024z" />
<glyph unicode="&#x23f6;" glyph-name="caret-up" horiz-adv-x="1349" d="M674.51 752l557.326-608h-1114.674z" />
<glyph unicode="&#x23f7;" glyph-name="caret-down" horiz-adv-x="1349" d="M674.49 144l-557.326 608h1114.674z" />
<glyph unicode="&#x25a0;" glyph-name="black-square" d="M910.222 960h-796.444c-62.578 0-113.778-51.2-113.778-113.778v-796.444c0-62.578 51.2-113.778 113.778-113.778h796.444c62.578 0 113.778 51.2 113.778 113.778v796.444c0 62.578-51.2 113.778-113.778 113.778z" />
<glyph unicode="&#x25a2;" glyph-name="square-outline" horiz-adv-x="1040" d="M958.857 960h-877.716c-40.374 0-73.142-32.768-73.142-73.142v-877.716c0-40.374 32.768-73.142 73.142-73.142h877.716c40.411 0 73.142 32.731 73.142 73.142v877.716c0 40.374-32.731 73.142-73.142 73.142zM958.857 45.713c0-20.187-16.384-36.571-36.571-36.571h-804.574c-20.187 0-36.571 16.384-36.571 36.571v804.574c0 20.187 16.384 36.571 36.571 36.571h804.572c20.187 0 36.571-16.384 36.571-36.571v-804.574z" />
<glyph unicode="&#x25b3;" glyph-name="delta" d="M954.034-62.632h-884.069c-24.264 0-46.797 12.573-59.537 33.22-12.744 20.647-13.881 46.426-2.998 68.115l442.029 881.333c11.866 23.659 36.071 38.597 62.539 38.597s50.673-14.938 62.539-38.597l442.033-881.333c10.88-21.689 9.743-47.465-2.998-68.115-12.741-20.647-35.277-33.22-59.537-33.22zM183.328 77.299h657.345l-328.674 655.309-328.671-655.309z" />
<glyph unicode="&#x2600;" glyph-name="five-dots" horiz-adv-x="158" d="M82.397 409.821c-22.372 0-40.577 18.205-40.577 40.59 0 22.372 18.205 40.564 40.577 40.564s40.577-18.192 40.577-40.564c0-22.385-18.205-40.59-40.577-40.59zM82.398 477.852c15.134 0 27.447-12.313 27.447-27.447s-12.313-27.447-27.447-27.447-27.447 12.313-27.447 27.447 12.313 27.447 27.447 27.447zM82.398 504.108c-29.66 0-53.704-24.044-53.704-53.704s24.044-53.704 53.704-53.704 53.704 24.044 53.704 53.704-24.044 53.704-53.704 53.704v0zM82.397 195c-22.372 0-40.577 18.205-40.577 40.59 0 22.359 18.205 40.564 40.577 40.564s40.577-18.205 40.577-40.564c0-22.385-18.205-40.59-40.577-40.59zM82.399 263.034c15.134 0 27.447-12.313 27.447-27.447s-12.313-27.447-27.447-27.447-27.447 12.313-27.447 27.447 12.313 27.447 27.447 27.447zM82.399 289.29c-29.66 0-53.704-24.044-53.704-53.704s24.044-53.704 53.704-53.704 53.704 24.044 53.704 53.704-24.044 53.704-53.704 53.704v0zM122.968 20.769c0-22.406-18.164-40.571-40.571-40.571s-40.571 18.164-40.571 40.571c0 22.406 18.164 40.571 40.571 40.571s40.571-18.164 40.571-40.571zM82.399 48.216c15.134 0 27.447-12.313 27.447-27.447s-12.313-27.447-27.447-27.447-27.447 12.313-27.447 27.447 12.313 27.447 27.447 27.447zM82.399 74.472c-29.66 0-53.704-24.044-53.704-53.704s24.044-53.704 53.704-53.704 53.704 24.044 53.704 53.704-24.044 53.704-53.704 53.704v0zM81.051 839.462c-22.372 0-40.564 18.205-40.564 40.577s18.192 40.577 40.564 40.577c22.385 0 40.59-18.205 40.59-40.577s-18.205-40.577-40.59-40.577zM81.056 907.487c15.134 0 27.447-12.313 27.447-27.447s-12.313-27.447-27.447-27.447-27.447 12.313-27.447 27.447 12.313 27.447 27.447 27.447zM81.056 933.744c-29.66 0-53.704-24.044-53.704-53.704s24.044-53.704 53.704-53.704 53.704 24.044 53.704 53.704-24.044 53.704-53.704 53.704v0zM122.974 665.218c0-22.41-18.167-40.577-40.577-40.577s-40.577 18.167-40.577 40.577c0 22.41 18.167 40.577 40.577 40.577s40.577-18.167 40.577-40.577zM82.398 692.669c15.134 0 27.447-12.313 27.447-27.447s-12.313-27.447-27.447-27.447-27.447 12.313-27.447 27.447 12.313 27.447 27.447 27.447zM82.398 718.926c-29.66 0-53.704-24.044-53.704-53.704s24.044-53.704 53.704-53.704 53.704 24.044 53.704 53.704-24.044 53.704-53.704 53.704v0z" />
<glyph unicode="&#x2630;" glyph-name="bars" horiz-adv-x="1339" d="M207.976 48.033c-33.983 0-61.535 27.552-61.535 61.535v0 18.090c0 33.983 27.552 61.535 61.535 61.535v0h923.056c33.983 0 61.535-27.552 61.535-61.535v0-18.090c0-33.983-27.552-61.535-61.535-61.535v0zM207.976 377.381c-33.983 0-61.535 27.552-61.535 61.535v0 18.090c0 33.983 27.552 61.535 61.535 61.535v0h923.056c33.983 0 61.535-27.552 61.535-61.535v0-18.090c0-33.983-27.552-61.535-61.535-61.535v0zM186.686 706.787c-0.71-0.046-1.531-0.075-2.374-0.075-20.041 0-36.461 15.524-37.872 35.217l-0.009 0.125v70.58c1.453 19.813 17.875 35.327 37.931 35.327 0.817 0 1.625-0.025 2.425-0.075l-0.112 0.007h965.646c0.687 0.043 1.494 0.075 2.309 0.075 20.039 0 36.459-15.524 37.872-35.212l0.009-0.125v-70.58c-1.425-19.805-17.832-35.327-37.872-35.327-0.815 0-1.622 0.025-2.421 0.075l0.112-0.007z" />
<glyph unicode="&#x2636;" glyph-name="double-four-dots" d="M394 94c40 0 70-32 70-70s-32-70-70-70c-40 0-70 34-70 70 0 38 30 70 70 70zM630 94c40 0 70-32 70-70s-32-70-70-70c-40 0-70 34-70 70 0 38 30 70 70 70zM394 378c40 0 70-32 70-70s-32-70-70-70c-40 0-70 32-70 70s30 70 70 70zM630 378c40 0 70-32 70-70s-32-70-70-70c-40 0-70 32-70 70s30 70 70 70zM394 660c40 0 70-32 70-70s-32-70-70-70c-40 0-70 32-70 70s30 70 70 70zM630 660c40 0 70-32 70-70s-32-70-70-70c-40 0-70 32-70 70s30 70 70 70zM394 942c40 0 70-32 70-70s-32-70-70-70c-40 0-70 34-70 70 0 40 30 70 70 70zM630 942c40 0 70-32 70-70s-32-70-70-70c-40 0-70 34-70 70 0 40 30 70 70 70z" />
<glyph unicode="&#x2637;" glyph-name="double-three-dots" d="M344 942c-58 0-102-46-102-100 0-56 46-100 102-100 54 0 100 46 100 100s-44 100-100 100zM680 742c58 0 102 46 102 100 0 56-46 100-102 100-54 0-100-46-100-100 0-56 44-100 100-100zM344 540c-58 0-102-46-102-100 0-56 46-102 102-102 54 0 100 46 100 102 0 54-44 100-100 100zM680 540c-56 0-100-46-100-100 0-56 46-102 100-102 56 0 102 46 102 102s-44 100-102 100zM680 154c-56 0-100-46-100-100s46-100 100-100c56 0 102 46 102 100 0 56-44 100-102 100zM344 154c-58 0-102-46-102-100 0-56 46-100 102-100 54 0 100 46 100 100 0 56-44 100-100 100z" />
<glyph unicode="&#x26a0;" glyph-name="danger" d="M1014.988 107.868l-449.26 745.058c-11.354 18.83-31.74 30.344-53.73 30.344s-42.376-11.512-53.73-30.344l-449.256-745.058c-11.684-19.378-12.030-43.548-0.902-63.25 11.128-19.704 32.002-31.888 54.63-31.888h898.518c22.628 0 43.502 12.186 54.63 31.888 11.128 19.704 10.784 43.872-0.9 63.25zM512.334 625.546c25.802 0 47.634-14.556 47.634-40.356 0-78.726-9.262-191.858-9.262-270.584 0-20.51-22.494-29.108-38.372-29.108-21.168 0-39.032 8.6-39.032 29.108 0 78.726-9.26 191.858-9.26 270.584 0 25.8 21.168 40.356 48.292 40.356zM512.996 137.964c-29.108 0-50.942 23.816-50.942 50.94 0 27.786 21.832 50.94 50.942 50.94 27.124 0 50.28-23.154 50.28-50.94 0-27.124-23.156-50.94-50.28-50.94z" />
<glyph unicode="&#x26a1;" glyph-name="trigger" horiz-adv-x="704" d="M704 640h-320l128 320h-320l-192-576h256l-128-448z" />
<glyph unicode="&#x26ab;" glyph-name="warning-circle" d="M874.039 810.036c-96.706 96.702-225.278 149.964-362.041 149.964-136.76 0-265.332-53.262-362.038-149.964-96.702-96.702-149.961-225.278-149.961-362.041 0-136.757 53.258-265.332 149.961-362.034 96.706-96.706 225.278-149.961 362.038-149.961s265.332 53.258 362.038 149.961c96.706 96.702 149.961 225.278 149.961 362.034 0.003 136.763-53.255 265.339-149.957 362.041zM436.193 797.182c7.917 8.194 18.603 12.782 30.094 12.782h92.537c11.491 0 22.177-4.63 30.078-12.831 7.904-8.201 12.023-19.154 11.597-30.639l-15.293-346.174c-0.868-23.438-20.659-42.681-44.117-42.681h-58.172c-23.471 0-43.229 19.27-44.041 42.721l-14.339 346.269c-0.399 11.485 3.739 22.352 11.656 30.553zM513.107 72.974c-53.681 0-94.161 42.388-94.161 98.597 0 56.839 40.005 99.702 93.052 99.702 54.79 0 93.052-40.998 93.052-99.702 0.003-58.054-37.807-98.597-91.943-98.597z" />
<glyph unicode="&#x26d2;" glyph-name="remove-circle" d="M512 960c282.77 0 512-229.23 512-512s-229.23-512-512-512c-282.77 0-512 229.23-512 512v0c0 282.77 229.23 512 512 512v0zM601.576 448l134.924 134.924c11.502 11.508 18.615 27.402 18.615 44.958 0 35.124-28.474 63.598-63.598 63.598-17.568 0-33.473-7.123-44.983-18.639l-134.876-134.924-134.924 134.924c-11.508 11.502-27.402 18.615-44.958 18.615-35.124 0-63.598-28.474-63.598-63.598 0-17.568 7.123-33.473 18.639-44.983l134.924-134.876-134.924-134.924c-11.506-11.506-18.622-27.401-18.622-44.958 0-35.115 28.466-63.581 63.581-63.581 17.557 0 33.453 7.117 44.958 18.622l134.924 134.924 134.875-134.924c11.51-11.516 27.415-18.64 44.983-18.64 35.124 0 63.598 28.474 63.598 63.598 0 17.556-7.114 33.451-18.616 44.959v0z" />
<glyph unicode="&#x2714;" glyph-name="check-small" d="M980 680l-510-456c-18-16-42-26-68-26-28 0-52 10-70 26l-286 258c-16 14-28 36-28 60 0 48 44 86 96 86 26 0 52-10 68-26l220-196 444 398c18 16 42 26 68 26 54 0 96-40 96-86-4-28-14-48-30-64" />
<glyph unicode="&#x271a;" glyph-name="add" d="M903.534 569.905h-269.629v269.629c0 66.243-55.637 120.466-121.905 120.466s-121.905-54.223-121.905-120.466v-269.629h-269.629c-66.243 0-120.466-55.637-120.466-121.905s54.223-121.905 120.466-121.905h269.629v-269.629c0-66.243 55.637-120.466 121.905-120.466s121.905 54.223 121.905 120.466v269.629h269.629c66.243 0 120.466 55.637 120.466 121.905s-54.223 121.905-120.466 121.905z" />
<glyph unicode="&#x2733;" glyph-name="fullscreen-exit" d="M896 320h-256v-256l82.752 82.752 210.752-210.752 90.496 90.496-210.752 210.752zM813.248 658.752l210.752 210.752-90.496 90.496-210.752-210.752-82.752 82.752v-256h256zM90.496 960l-90.496-90.496 210.752-210.752-82.752-82.752h256v256l-82.752-82.752zM210.752 237.248l-210.752-210.752 90.496-90.496 210.752 210.752 82.752-82.752v256h-256z" />
<glyph unicode="&#x2744;" glyph-name="scatter-chart" horiz-adv-x="1339" d="M0 960h78.769v-945.231h1260.308v-78.769h-1339.077v1024zM354.462 408.615c65.255 0 118.154-52.899 118.154-118.154s-52.899-118.154-118.154-118.154c-65.255 0-118.154 52.899-118.154 118.154v0c0 65.255 52.899 118.154 118.154 118.154v0zM669.538 723.692c65.255 0 118.154-52.899 118.154-118.154s-52.899-118.154-118.154-118.154c-65.255 0-118.154 52.899-118.154 118.154v0c0 65.255 52.899 118.154 118.154 118.154v0zM1063.385 566.154c65.255 0 118.154-52.899 118.154-118.154s-52.899-118.154-118.154-118.154c-65.255 0-118.154 52.899-118.154 118.154v0c0 65.255 52.899 118.154 118.154 118.154v0z" />
<glyph unicode="&#x276c;" glyph-name="angle-left" horiz-adv-x="640" d="M527.936-64l-527.168 510.72 527.168 513.28 111.36-110.592-413.568-403.2 413.568-400.64z" />
<glyph unicode="&#x276d;" glyph-name="angle-right" horiz-adv-x="640" d="M112.064-64l527.232 510.72-527.232 513.28-111.36-110.592 413.632-403.2-413.632-400.64z" />
<glyph unicode="&#x2770;" glyph-name="step-backward" horiz-adv-x="838" d="M279.273 448l558.545 512v-1024zM0 960h186.182v-1024h-186.182v1024z" />
<glyph unicode="&#x2771;" glyph-name="step-forward" horiz-adv-x="838" d="M558.545 448l-558.545 512v-1024zM837.818 960h-186.182v-1024h186.182v1024z" />
<glyph unicode="&#x27f5;" glyph-name="undo1" d="M1002.081 119.68c-8.791 0-16.852 5.029-20.306 13.282v0c-2.534 5.988-65.871 148.057-302.678 176.194-49.327 5.988-108.404 9.059-180.148 9.597v-177.077c0-8.176-4.414-15.585-11.67-19.5-7.217-3.762-15.854-3.224-22.571 1.267l-454.958 306.248c-6.142 4.107-9.75 11.017-9.75 18.272 0 7.332 3.608 14.011 9.75 18.31l455.149 306.286c6.718 4.645 15.278 4.952 22.571 1.113 7.293-3.915 11.631-11.324 11.631-19.27v-164.794c98.961-12.898 524.898-89.441 524.898-448.125 0-10.403-7.332-19.5-17.619-21.573-1.42-0.23-2.917-0.23-4.299-0.23z" />
<glyph unicode="&#x27f6;" glyph-name="redo" horiz-adv-x="1040" d="M29.919 119.681c8.791 0 16.852 5.029 20.306 13.282v0c2.534 5.988 65.871 148.057 302.678 176.194 49.327 5.988 108.404 9.059 180.148 9.597v-177.077c0-8.176 4.414-15.585 11.67-19.5 7.217-3.762 15.854-3.224 22.571 1.267l454.958 306.248c6.142 4.107 9.75 11.017 9.75 18.272 0 7.332-3.608 14.011-9.75 18.31l-455.149 306.286c-6.718 4.645-15.278 4.952-22.571 1.113-7.293-3.915-11.631-11.324-11.631-19.27v-164.794c-98.961-12.898-524.898-89.441-524.898-448.125 0-10.403 7.332-19.5 17.619-21.573 1.42-0.23 2.917-0.23 4.299-0.23z" />
<glyph unicode="&#x2900;" glyph-name="back" d="M551.385 408.615v-472.615h472.615v472.615h-472.615zM945.231 14.769h-315.077v315.077h315.077v-315.077zM787.692 960h-787.692v-787.692h448.985v346.585h338.708z" />
<glyph unicode="&#x2901;" glyph-name="front" d="M0 960h787.692v-787.692h-787.692v787.692zM866.462 408.615v-78.769h78.769v-315.077h-315.077v78.769h-78.769v-157.538h472.615v472.615z" />
<glyph unicode="&#x2902;" glyph-name="send-to-back" d="M384 960h-384v-384h384v384zM320 640h-256v256h256v-256zM838.4 768h-384v-256h-262.4v-384h390.4v256h256zM640 320v-384h384v384h-384zM960 0h-256v256h256v-256z" />
<glyph unicode="&#x2903;" glyph-name="bring-to-front" d="M0 960h384v-128h-64v64h-256v-256h64v-64h-128v384zM192 768h640v-640h-640v640zM896 320h128v-384h-384v128h64v-64h256v256h-64v64z" />
<glyph unicode="&#x2912;" glyph-name="upload" horiz-adv-x="642" d="M21.056 508.992l245.632 236.8c13.535 13.147 32.029 21.253 52.416 21.253s38.881-8.106 52.434-21.27l-0.018 0.018 246.528-236.8c13.51-12.853 21.912-30.965 21.912-51.040s-8.403-38.187-21.883-51.012l-0.029-0.028c-13.74-13.058-32.364-21.090-52.864-21.090s-39.124 8.032-52.897 21.121l0.033-0.031-128.32 105.088v-512c0.186-1.755 0.291-3.792 0.291-5.854 0-32.554-26.39-58.944-58.944-58.944-2.041 0-4.058 0.104-6.045 0.306l0.25-0.021c-1.682-0.172-3.634-0.27-5.609-0.27-32.2 0-58.304 26.104-58.304 58.304 0 2.283 0.131 4.534 0.386 6.748l-0.025-0.27v512l-129.216-105.28c-13.74-13.058-32.364-21.090-52.864-21.090s-39.124 8.032-52.897 21.121l0.033-0.031c-13.57 12.86-22.013 31.012-22.013 51.136s8.444 38.276 21.982 51.106l0.032 0.030zM64 960h512c35.346 0 64-28.654 64-64s-28.654-64-64-64v0h-512c-35.346 0-64 28.654-64 64s28.654 64 64 64v0z" />
<glyph unicode="&#x2913;" glyph-name="download" horiz-adv-x="642" d="M21.696 387.008l245.376-236.8c13.515-13.139 31.987-21.241 52.352-21.241s38.837 8.102 52.37 21.258l-0.018-0.017 246.272 236.8c13.51 12.853 21.912 30.965 21.912 51.040s-8.403 38.187-21.883 51.012l-0.029 0.028c-13.732 13.021-32.331 21.029-52.8 21.029s-39.068-8.008-52.834-21.061l0.034 0.032-128-105.088v512c0.185 1.753 0.291 3.788 0.291 5.847 0 32.554-26.39 58.944-58.944 58.944-2.018 0-4.012-0.101-5.978-0.299l0.248 0.020c-1.662 0.168-3.592 0.264-5.544 0.264-32.2 0-58.304-26.104-58.304-58.304 0-2.28 0.131-4.53 0.386-6.742l-0.025 0.27v-512l-129.024 105.28c-13.736 13.040-32.347 21.059-52.832 21.059s-39.096-8.020-52.866-21.091l0.034 0.032c-13.627-12.867-22.11-31.056-22.11-51.227 0-20.078 8.405-38.192 21.888-51.017l0.030-0.028zM64.64 64h511.36c35.346 0 64-28.654 64-64s-28.654-64-64-64v0h-511.36c-35.346 0-64 28.654-64 64s28.654 64 64 64v0z" />
<glyph unicode="&#x2b99;" glyph-name="double-arrow-up" horiz-adv-x="878" d="M877.714 229.157v-293.157l-438.857 292.571-438.857-292.571v293.23l438.857 288.402zM877.714 668.014v-293.157l-438.857 292.571-438.857-292.571v293.23l438.857 288.402z" />
<glyph unicode="&#xe00f;" glyph-name="three-dot-vertical" d="M512 742c56 0 100 46 100 100s-46 100-100 100c-54 0-100-46-100-100 0-56 44-100 100-100zM512 540c-56 0-100-46-100-100 0-56 46-102 100-102s100 46 100 102c0 54-44 100-100 100zM512 154c-56 0-100-46-100-100 0-56 46-100 100-100s100 46 100 100c0 56-44 100-100 100z" />
<glyph unicode="&#xe908;" glyph-name="multi-monitor" horiz-adv-x="1186" d="M269.474 960v0c-29.765 0-53.895-24.129-53.895-53.895v-916.211c0-29.765 24.129-53.895 53.895-53.895h646.737c29.765 0 53.895 24.129 53.895 53.895v916.211c0 29.765-24.129 53.895-53.895 53.895h-646.737zM323.368 906.105h538.947c29.765 0 53.895-24.129 53.895-53.895v0-700.632c0-29.765-24.129-53.895-53.895-53.895v0h-538.947c-29.765 0-53.895 24.129-53.895 53.895v0 700.632c0 29.765 24.129 53.895 53.895 53.895v0zM485.053 43.789h215.579v-53.895h-215.579v53.895zM159.636 744.421h-51.847c-29.765 0-53.895-24.129-53.895-53.895v0-431.158c0-29.765 24.129-53.895 53.895-53.895v0h53.895l-2.048-161.684h-105.741c-29.765 0-53.895 24.129-53.895 53.895v0 646.737c0 29.765 24.129 53.895 53.895 53.895v0h109.083zM1027.773 744.421h50.823c29.626-0.183 53.571-24.242 53.571-53.894 0 0 0-0.001 0-0.001v0-431.158c0 0 0-0.001 0-0.001 0-29.652-23.946-53.71-53.554-53.894h-52.942l2.048-161.684h104.394c29.626 0.183 53.571 24.242 53.571 53.894 0 0 0 0.001 0 0.001v0 646.737c0 0 0 0.001 0 0.001 0 29.652-23.946 53.71-53.554 53.894h-107.806z" />
<glyph unicode="&#xf060;" glyph-name="clock-twinkle" d="M862 470c0 48-42 90-90 90v106c0 124-102 226-228 226-124 0-226-102-226-226v-106c-50 0-92-42-92-90v-302c0-50 42-92 92-92h454c48 0 90 42 90 92h-302v30h302v60h-302v30h302v60h-302v30h302v60h-302v32zM408 560v106c0 74 62 136 136 136 76 0 136-62 136-136v-106zM266 860c0 2-2 4-4 6-22 4-36 12-44 22-8 12-14 28-18 58 0 2-4 2-6 2s-4 0-4-2c-6-30-10-46-20-58-8-10-22-18-44-22-2 0-4-4-4-6s2-4 4-4c22-6 36-12 44-24 10-12 14-28 20-58 0 0 2-2 4-2 4 0 6 2 6 2 4 30 8 46 18 58 8 12 22 18 44 24 2 0 4 2 4 4zM1004 772c-18 2-26 8-32 14-8 10-12 22-14 44 0 2-2 2-4 2s-4 0-4-2c-2-22-6-34-14-44-6-8-16-12-32-14-2 0-2-2-2-4s0-4 2-4c18-2 26-8 32-14 8-10 12-22 14-44 0-2 2-2 4-2s4 0 4 2c2 22 6 34 14 44 6 8 16 12 32 14 2 0 2 2 2 4s0 2-2 4zM120 538c-18 4-26 8-32 14-8 10-12 22-14 44 0 2-2 4-4 4s-4-2-4-4c-2-20-6-34-14-44-6-8-16-10-32-14-2 0-2-2-2-4s0-4 2-4c18-2 26-8 32-14 8-10 12-22 14-44 0 0 2-2 4-2s4 2 4 2c2 22 6 34 14 44 6 8 16 12 32 14 2 0 2 2 2 4s0 4-2 4z" />
<glyph unicode="&#xf095;" glyph-name="arrow-alt-down" d="M1006 448h-282v494h-426v-494h-282l494-494z" />
<glyph unicode="&#xf096;" glyph-name="arrow-alt-up" d="M18 448h282v-494h426v494h282l-494 494z" />
<glyph unicode="&#xf200;" glyph-name="clock-error" horiz-adv-x="799" d="M799.122 429.929c0 60.235-52.204 112.439-112.439 112.439v132.518c0 156.612-128.502 285.114-285.114 285.114s-285.114-128.502-285.114-285.114v-132.518c-64.251 0-116.455-52.204-116.455-112.439v-377.475c0-64.251 52.204-116.455 116.455-116.455h570.227c60.235 0 112.439 52.204 112.439 116.455h-377.475v36.141h377.475v76.298h-377.475v36.141h377.475v76.298h-377.475v36.141h377.475v76.298h-377.475v40.157h377.475zM228.894 542.369v132.518c0 92.361 76.298 172.675 172.675 172.675s172.675-76.298 172.675-172.675v-132.518h-345.349z" />
<glyph unicode="&#xf3a1;" glyph-name="star" d="M1001.773 493.93c20.156 19.643 27.271 48.473 18.577 75.272-8.714 26.8-31.413 45.93-59.299 49.99l-247.942 36.027c-10.56 1.538-19.684 8.161-24.4 17.736l-110.848 224.648c-12.446 25.241-37.708 40.927-65.861 40.927-28.132 0-53.394-15.686-65.84-40.927l-110.868-224.669c-4.716-9.576-13.861-16.199-24.421-17.736l-247.942-36.027c-27.866-4.039-50.585-23.191-59.299-49.99-8.694-26.8-1.579-55.629 18.577-75.272l179.395-174.863c7.648-7.464 11.155-18.208 9.35-28.706l-42.322-246.916c-3.752-21.735 1.948-42.875 16.014-59.545 21.858-25.979 60.017-33.894 90.528-17.86l221.737 116.589c9.268 4.86 20.935 4.819 30.183 0l221.757-116.589c10.785-5.68 22.289-8.55 34.161-8.55 21.673 0 42.219 9.637 56.347 26.41 14.087 16.67 19.766 37.852 16.014 59.545l-42.342 246.916c-1.804 10.519 1.702 21.243 9.35 28.706l179.395 174.884z" />
<glyph unicode="&#x1f300;" glyph-name="pie-chart" d="M448 832.448c-247.424 0-448-200.576-448-448s200.576-448 448-448c247.424 0 448 200.576 448 448v0h-448v448zM575.488 960.832v-449.728h448c0 0.228 0.001 0.498 0.001 0.769 0 247.684-200.569 448.523-448.151 448.959h-0.042z" />
<glyph unicode="&#x1f304;" glyph-name="picture" d="M409.6 601.601c0-56.554-45.846-102.401-102.401-102.401s-102.401 45.846-102.401 102.401c0 56.554 45.846 102.401 102.401 102.401s102.401-45.846 102.401-102.401zM757.759 509.441l-245.76-245.76-102.398 102.398-286.721-286.718 71.681-71.681 215.040 215.040 107.52-102.401 245.76 250.881 174.079-174.081 66.559 66.562zM0 908.801v-921.599h1024v921.599h-1024zM921.599 89.6h-819.199v716.8h819.199v-716.8z" />
<glyph unicode="&#x1f306;" glyph-name="image" horiz-adv-x="1344" d="M1241.128-2.733h-1121.452c-75.301 0-97.072 46.167-48.344 102.771l195.809 227.313c48.792 56.476 135.555 71.267 192.992 32.784 57.372-38.547 137.028-18.569 176.984 44.31l196.578 309.273c40.020 62.879 102.771 61.342 139.461-3.394l338.088-595.367c36.754-64.736 5.187-117.69-70.115-117.69zM320.479 575.474c-106.357 0-192.672 86.187-192.672 192.479s86.315 192.479 192.672 192.479c106.421 0 192.672-86.187 192.672-192.479s-86.251-192.479-192.672-192.479z" />
<glyph unicode="&#x1f30a;" glyph-name="leapfrogging" horiz-adv-x="1410" d="M371.014 121.507c0-102.453-83.054-185.507-185.507-185.507s-185.507 83.054-185.507 185.507c0 102.453 83.054 185.507 185.507 185.507s185.507-83.054 185.507-185.507zM704.928 307.014c-103.884 0-185.507-89.043-185.507-185.507s81.623-185.507 185.507-185.507 185.507 81.623 185.507 185.507-81.623 185.507-185.507 185.507zM704.928 10.203c-59.362 0-111.304 51.942-111.304 111.304s51.942 111.304 111.304 111.304 111.304-51.942 111.304-111.304-51.942-111.304-111.304-111.304zM1409.855 121.507c0-102.453-83.054-185.507-185.507-185.507s-185.507 83.054-185.507 185.507c0 102.453 83.054 185.507 185.507 185.507s185.507-83.054 185.507-185.507zM1231.768 388.638l103.884 333.913-148.406-74.203c-29.681 51.942-59.362 103.884-103.884 140.986-200.348 215.188-541.681 230.029-756.87 22.261 0-7.42-7.42-14.841-14.841-22.261-103.884-103.884-163.246-252.29-163.246-400.696h140.986c0 111.304 44.522 222.609 118.725 304.232 155.826 163.246 408.116 170.667 571.362 14.841 7.42-7.42 7.42-7.42 14.841-14.841 29.681-29.681 51.942-66.783 74.203-111.304l-163.246-81.623 326.493-111.304z" />
<glyph unicode="&#x1f30b;" glyph-name="area-chart" horiz-adv-x="1229" d="M0-64v477.867l341.333-68.267 409.6 204.8 477.867-273.067v-341.333h-1228.8zM0 550.4v204.8l341.333-136.533 409.6 341.333 477.867-341.333v-204.8l-477.867 273.067-409.6-204.8z" />
<glyph unicode="&#x1f30d;" glyph-name="earth" d="M746.167 732.246l0.99-7.602-11.393-2.359-1.516-16.194h13.646l18.153 1.748 9.371 11.14-9.961 3.875-5.454 6.276-8.192 13.267-3.917 18.764-15.394-3.138-4.317-6.613v-7.455l7.413-5.075zM733.047 726.012l0.821 10.15-9.034 3.896-12.635-2.927-9.371-15.036v-9.75h10.93zM472.967 682.904l-2.78-7.16h-13.457v-6.95h3.201c0 0 0.19-1.474 0.463-3.412l8.255 0.695 5.159 3.201 1.348 6.465 6.676 0.569 2.632 5.433-6.128 1.264-5.37-0.105zM438.283 670.29l-0.526-6.802 9.75 0.821 1.011 6.823-5.854 4.612zM1023.874 453.296c-0.147 14.973-0.906 29.841-2.317 44.477-4.738 48.794-16.405 95.566-33.884 139.411-1.306 3.264-2.506 6.57-3.896 9.792-23.291 55.027-55.996 105.127-96.030 148.362-2.632 2.822-5.307 5.602-7.981 8.339-7.56 7.855-15.331 15.521-23.376 22.87-91.018 82.868-211.897 133.452-344.401 133.452-133.62 0-255.363-51.49-346.633-135.621-21.27-19.606-40.813-41.002-58.544-63.914-66.884-86.511-106.812-194.881-106.812-312.454 0-282.34 229.692-512.011 512.011-512.011 198.588 0 370.999 113.719 455.867 279.412 18.153 35.421 32.284 73.18 41.802 112.751 2.422 10.045 4.507 20.133 6.318 30.346 5.159 29.083 7.981 58.987 7.981 89.501 0.021 1.769-0.084 3.517-0.105 5.286zM927.507 657.928l2.969 3.327c3.896-7.56 7.539-15.247 11.014-23.039l-4.844 0.19-9.14-1.264v20.785zM853.526 747.261l0.084 22.87c8.045-8.529 15.794-17.311 23.207-26.408l-9.224-13.731-32.242 0.295-2.022 6.718 20.196 10.256zM235.904 804.099v0.863h10.256l0.884 3.517h16.784v-7.329l-4.823-6.444h-23.123l0.021 9.392zM252.288 781.25c0 0 10.256 1.748 11.14 1.748s0-10.235 0-10.235l-23.123-1.453-4.401 5.265 16.384 4.675zM960.128 578.009h-37.464l-22.828 16.995-24.028-2.338v-14.657h-7.602l-8.213 5.854-41.613 10.551v26.956l-52.732-4.107-16.342-8.782h-20.933l-10.256 1.032-25.418-14.11v-26.556l-51.953-37.485 4.317-16.005h10.53l-2.759-15.247-7.413-2.717-0.4-39.844 44.898-51.132h19.543l1.179 3.117h35.127l10.129 9.371h19.922l10.93-10.951 29.693-3.075-3.938-39.486 32.958-58.186-17.353-33.168 1.179-15.626 13.667-13.625v-37.569l17.942-24.134v-31.21h15.5c-86.258-105.906-217.541-173.738-364.428-173.738-259.069-0.021-469.85 210.781-469.85 469.871 0 65.22 13.394 127.387 37.506 183.888v14.657l16.805 20.406c5.833 11.014 12.088 21.754 18.764 32.22l0.758-8.529-19.501-23.692c-6.044-11.414-11.688-23.081-16.805-35.063v-26.745l19.522-9.392v-37.169l18.722-31.947 15.226-2.338 1.958 10.951-17.963 27.714-3.517 26.935h10.53l4.443-27.714 25.966-37.885-6.697-12.235 16.51-25.25 41.002-10.15v6.634l16.405-2.338-1.558-11.709 12.888-2.359 19.901-5.433 28.114-32.031 35.906-2.717 3.517-29.293-24.576-17.184-1.158-26.155-3.517-16.005 35.548-44.498 2.717-15.247c0 0 12.888-3.496 14.468-3.496 1.558 0 28.893-20.701 28.893-20.701v-80.425l9.75-2.738-6.634-37.106 16.405-21.88-3.033-36.769 21.67-38.096 27.819-24.302 27.967-0.505 2.738 8.992-20.554 17.311 1.179 8.592 3.685 10.53 0.779 10.74-13.899 0.421-7.013 8.803 11.54 11.098 1.558 8.382-12.888 3.685 0.758 7.792 18.364 2.78 27.924 13.415 9.371 17.184 29.293 37.485-6.655 29.314 8.992 15.605 26.935-0.821 18.132 14.362 5.854 56.565 20.111 25.545 3.517 16.405-18.342 5.875-12.109 19.859-41.381 0.421-32.81 12.509-1.558 23.397-10.951 19.143-29.672 0.442-17.142 26.914-15.226 7.434-0.779-8.213-27.714-1.643-10.15 14.131-28.914 5.875-23.818-27.524-37.485 6.36-2.717 42.245-27.356 4.675 10.972 20.722-3.138 11.898-35.948-24.028-22.618 2.759-8.066 17.669 4.928 18.216 12.467 22.976 28.704 14.531 55.428 0.021-0.147-16.91 19.922-9.266-1.579 28.893 14.362 14.447 28.977 19.037 1.98 13.394 28.893 30.072 30.725 17.016-2.717 2.232 20.806 19.585 7.623-2.022 3.496-4.38 7.897 8.761 1.937 0.863-8.655 1.221-8.782 2.927v8.424l4.654 3.812h10.256l4.696-2.064 4.064-8.213 4.97 0.758v0.716l1.432-0.484 14.404 2.211 2.043 7.034 8.213-2.064v-7.623l-7.623-5.244h0.021l1.116-8.36 26.092-8.045c0 0 0.021-0.105 0.063-0.316l6.002 0.505 0.4 11.309-20.68 9.413-1.179 5.433 17.163 5.854 0.758 16.426-17.942 10.93-1.179 27.693-24.597-12.088h-8.971l2.359 21.080-33.484 7.897-13.857-10.466v-31.926l-24.913-7.897-9.982-20.806-10.824-1.748v26.619l-23.418 3.243-11.709 7.623-4.717 17.247 41.887 24.513 20.491 6.234 2.064-13.773 11.414 0.59 0.884 6.928 11.941 1.706 0.211 2.422-5.138 2.127-1.179 7.329 14.678 1.242 8.866 9.224 0.484 0.674 0.105-0.042 2.696 2.78 30.852 3.896 13.646-11.583-35.779-19.059 45.53-10.74 5.897 15.226h19.901l7.034 13.267-14.067 3.517v16.784l-44.119 19.543-30.451-3.517-17.184-8.992 1.179-21.859-17.963 2.738-2.759 12.088 17.205 15.626-31.231 1.558-8.971-2.717-3.896-10.53 11.709-1.98-2.338-11.709-19.901-1.179-3.117-7.792-28.872-0.8c0 0-0.8 16.384-1.958 16.384s22.639 0.4 22.639 0.4l17.205 16.805-9.392 4.696-12.488-12.13-20.722 1.179-12.488 17.184h-26.556l-27.714-20.701h25.397l2.317-7.434-6.592-6.128 28.114-0.779 4.296-10.15-31.652 1.179-1.537 7.813-19.901 4.296-10.551 5.854-23.692-0.19c77.561 56.502 172.938 89.944 276.022 89.944 118.816 0 227.375-44.414 310.201-117.384l-5.581-9.982-21.67-8.487-9.14-9.919 2.106-11.561 11.182-1.558 6.739-16.847 19.29 7.771 3.18-22.533h-5.812l-15.836 2.338-17.563-2.948-16.995-24.007-24.302-3.812-3.517-20.806 10.256-2.422-2.969-13.373-24.134 4.844-22.133-4.844-4.696-12.32 3.833-25.861 12.993-6.086 21.796 0.126 14.72 1.327 4.486 11.709 22.997 29.883 15.142-3.096 14.91 13.478 2.78-10.53 36.685-24.744-4.486-6.023-16.531 0.884 6.36-9.013 10.172-2.232 11.919 4.97-0.253 14.362 5.286 2.653-4.254 4.507-24.471 13.646-6.444 18.132h20.343l6.507-6.444 17.521-15.099 0.737-18.258 18.153-19.332 6.76 26.492 12.572 6.865 2.359-21.67 12.277-13.478 24.492 0.421c4.738-12.193 8.992-24.597 12.72-37.254l-2.548-2.359zM279.265 727.381l12.299 5.854 11.119-2.653-3.833-14.931-12.004-3.812-7.581 15.542zM344.527 692.233v-9.666h-28.093l-10.53 2.927 2.632 6.739 13.499 5.581h18.448v-5.581h4.043zM357.458 678.755v-9.371l-7.034-4.528-8.761-1.622c0 0 0 14.046 0 15.521h15.794zM349.539 682.567v11.14l9.666-8.803-9.666-2.338zM353.941 660.034v-9.119l-6.718-6.739h-14.931l2.338 10.235 7.055 0.611 1.453 3.517 10.803 1.495zM316.75 678.755h15.521l-19.901-27.819-8.213 4.401 1.769 11.709 10.824 11.709zM380.307 663.235v-9.098h-14.931l-4.085 5.897v8.466h1.179l17.837-5.265zM366.513 675.744l4.254 4.465 7.181-4.465-5.749-4.738-5.686 4.738zM967.751 554.296l1.474 1.727c0.611-2.653 1.264-5.307 1.853-8.002l-3.327 6.276zM79.646 646.556v-14.657c5.117 11.962 10.761 23.628 16.805 35.063l-16.805-20.406z" />
<glyph unicode="&#x1f30e;" glyph-name="geo-map" d="M511.552 960c-282.77 0-512-229.23-512-512s229.23-512 512-512c282.77 0 512 229.23 512 512v0c-0.437 282.594-229.406 511.564-511.959 512h-0.041zM490.368 290.368c-4.813-14.29-13.309-26.276-24.368-35.216l-0.144-0.112c-2.176-1.472-49.088 24.512-57.024 28.16-10.693 17.858-19.592 38.489-25.63 60.309l-0.418 1.771-17.28 16.576s-39.744 29.632-43.328 31.040-10.816 57.088-13.184 62.144c-6.431 9.064-13.753 16.894-21.996 23.64l-0.212 0.168c-3.904 15.553-6.227 33.447-6.399 51.856l-0.001 0.112c1.842 18.388 7.793 35.074 16.917 49.56l-0.277-0.472c7.49 12.424 11.921 27.425 11.921 43.461 0 7.293-0.917 14.372-2.641 21.129l0.128-0.59c-3.571 0.948-7.671 1.492-11.898 1.492-7.539 0-14.674-1.731-21.028-4.817l0.286 0.126c-6.926 3.812-14.952 7.031-23.386 9.243l-0.742 0.165-14.592 27.2s-87.232 6.4-85.824 8.384c83.095 116.567 217.819 191.671 370.084 191.671 20.204 0 40.098-1.322 59.603-3.885l-2.294 0.246h5.056c1.851 0.301 3.984 0.474 6.157 0.474 13.147 0 24.822-6.303 32.169-16.051l0.074-0.103c1.6-2.816 30.912-28.544 30.208-28.544h-80.704l-16.576-14.464 72.96-43.584c-9.984-2.752-30.272-9.088-43.968-13.376-9.791-3.066-18.3-7.539-25.8-13.267l0.2 0.147-28.864-21.632-26.816-38.4 39.104-28.864s45.44-34.624 47.616-36.096c4.673 8.286 8.631 17.88 11.377 27.972l0.207 0.892-2.88 70.080 21.632-7.232 32 2.88s32-24.512 35.328-27.456c6.141-9.555 12.17-20.687 17.382-32.265l0.666-1.655c-0.975-3.767-1.535-8.092-1.535-12.547 0-7.131 1.435-13.928 4.031-20.116l-0.128 0.343c0.114-0.008 0.248-0.012 0.383-0.012 1.134 0 2.195 0.314 3.1 0.859l-0.027-0.015c10.944 5.312 21.376 11.52 32 17.728 6.098 5.229 13.263 9.426 21.099 12.207l0.469 0.145c-2.652-10.684-6.383-20.062-11.186-28.765l0.306 0.605c-1.088-1.728-28.16-46.72-39.68-65.92-3.631-5.951-7.648-11.108-12.179-15.764l0.019 0.020-37.696-38.4 12.8-22.4-31.36-37.184c-2.694-3.17-5.497-6.034-8.488-8.692l-0.088-0.076-33.664-29.824s-36.864-8.704-38.976-8.704-29.632-6.4-29.632-6.4c-3.448 0.701-7.411 1.102-11.467 1.102-19.375 0-36.614-9.15-47.63-23.364l-0.103-0.138c-0.106-2.126-0.166-4.616-0.166-7.121 0-25.59 6.286-49.711 17.399-70.904l-0.401 0.84zM873.92 424.32c-4.874-13.672-11.371-25.514-19.435-36.098l0.235 0.322c-8.268-11.332-16.877-21.322-26.22-30.572l-0.020-0.020-40.896-5.12c6.905 37.927 38.010 66.854 76.465 70.375l0.335 0.025c3.639 0.329 6.895 0.826 10.083 1.506l-0.547-0.098zM641.536 296.32l-19.2 28.352c1.524 4.846 4.179 8.967 7.663 12.208l0.017 0.016s72.768 10.752 79.616 9.984c7.855-5.715 14.097-13.187 18.22-21.861l0.148-0.347c-9.157-13.084-20.34-24.043-33.213-32.675l-0.451-0.285c-8.384 0.064-52.8 4.672-52.8 4.672zM660.736 196.928s-8.768-3.648-17.536-8c-4.558-3.44-10.318-5.509-16.562-5.509-1.633 0-3.233 0.142-4.788 0.413l0.165-0.024c-5.728 6.094-12.179 11.405-19.243 15.828l-0.405 0.236c-10.134 7.382-21.642 14.192-33.783 19.874l-1.289 0.542c-11.599 6.035-21.326 14.126-29.043 23.879l-0.141 0.185c2.014 8.833 5.032 16.629 9.004 23.826l-0.236-0.466c-0.212 1.642-0.333 3.542-0.333 5.47 0 6.714 1.466 13.085 4.096 18.811l-0.116-0.281c3.502 0.361 7.567 0.567 11.68 0.567s8.178-0.206 12.185-0.608l-0.505 0.041c10.661-3.365 19.75-9.128 26.986-16.681l0.022-0.023c4.358-9.557 10.53-17.594 18.136-23.979l0.104-0.085c10.107-3.175 18.043-10.629 21.807-20.184l0.081-0.232c1.275-8.618 5.216-16.145 10.945-21.889l-0.001 0.001zM674.944 60.416c-22.276 4.053-40 20.049-46.48 40.986l-0.112 0.422c12.83 11.285 24.566 22.778 35.664 34.865l0.304 0.335c7.68 10.688 47.488 55.872 47.488 55.872l-12.224 24.512 34.24 20.224c10.077 6.107 22.012 10.223 34.785 11.492l0.351 0.028 33.344 3.2q3.008 0 5.952 0.384l53.696 1.472s48.768 12.8 41.344-0.768c-111.68-201.856-228.16-192.96-228.16-192.96z" />
<glyph unicode="&#x1f30f;" glyph-name="arrow-down" d="M877.254 338.746l-320-320c-24.992-24.994-65.514-24.994-90.508 0l-320 320c-24.994 24.994-24.994 65.516 0 90.51 24.994 24.996 65.516 24.996 90.51 0l210.744-210.746v613.49c0 35.346 28.654 64 64 64s64-28.654 64-64v-613.49l210.746 210.746c12.496 12.496 28.876 18.744 45.254 18.744s32.758-6.248 45.254-18.746c24.994-24.994 24.994-65.514 0-90.508z" />
<glyph unicode="&#x1f310;" glyph-name="circle-outline" d="M512-22c-260.689 0-470 209.311-470 470s209.311 470 470 470c260.689 0 470-209.311 470-470s-209.311-470-470-470zM512 843.789c-216.924 0-395.789-176.964-395.789-395.789 0-216.924 176.964-395.789 395.789-395.789 216.924 0 395.789 176.964 395.789 395.789 0 216.924-178.865 395.789-395.789 395.789z" />
<glyph unicode="&#x1f317;" glyph-name="switch-side-panel" horiz-adv-x="1455" d="M84.595 864v-832h302.548v832h-302.548zM614.047 788.366v-680.726h680.726v680.726h-680.726zM538.404 864h832v-832h-832v832z" />
<glyph unicode="&#x1f31a;" glyph-name="arrow-up" d="M877.254 557.254l-320 320c-24.992 24.994-65.514 24.994-90.508 0l-320-320c-24.994-24.994-24.994-65.516 0-90.51 24.994-24.996 65.516-24.996 90.51 0l210.744 210.746v-613.49c0-35.346 28.654-64 64-64s64 28.654 64 64v613.49l210.746-210.746c12.496-12.496 28.876-18.744 45.254-18.744s32.758 6.248 45.254 18.746c24.994 24.994 24.994 65.514 0 90.508z" />
<glyph unicode="&#x1f31c;" glyph-name="bar-chart" horiz-adv-x="1252" d="M0 391.111h341.333v-455.111h-341.333v455.111zM455.111 960h341.333v-1024h-341.333v1024zM910.222 618.667h341.333v-682.667h-341.333v682.667z" />
<glyph unicode="&#x1f32e;" glyph-name="bar" horiz-adv-x="1092" d="M409.6-64h273.067v1024h-273.067v-1024zM0-64h273.067v750.933h-273.067v-750.933zM819.2 413.867v-477.867h273.067v477.867h-273.067z" />
<glyph unicode="&#x1f338;" glyph-name="ABC" horiz-adv-x="1456" d="M237.263 345.101l-42.203-137.187h-89.702l153.027 480.171h110.813l158.305-480.171h-94.973l-42.21 137.187h-153.027zM374.446 411.060l-36.933 118.718c-10.559 29.027-18.464 60.679-23.743 89.695h-2.642c-7.917-29.027-13.187-63.321-23.743-89.695l-36.94-118.718h124zM593.422 682.813c29.027 5.282 79.155 10.552 126.642 10.552 65.956 0 105.536-7.917 137.194-31.67 29.027-18.457 50.128-50.128 50.128-89.695 0-44.845-29.027-84.432-79.155-102.899v-2.642c50.128-13.187 97.615-52.77 97.615-118.718 0-42.21-18.457-76.513-47.487-100.257-34.305-29.027-89.695-44.845-176.77-44.845-47.487 0-84.432 2.642-108.178 5.282v474.899zM680.501 492.845h44.845c60.686 0 94.973 29.027 94.973 68.591 0 44.845-34.305 65.956-89.695 65.956-26.385 0-39.575-2.642-50.128-2.642v-131.917zM680.501 271.23c10.552-2.642 26.385-2.642 47.487-2.642 55.416 0 105.543 21.101 105.543 81.79 0 55.416-47.487 79.155-108.171 79.155h-42.21v-158.305zM1347.993 221.101c-21.101-10.552-65.956-21.101-124-21.101-153.027 0-245.358 94.973-245.358 242.711 0 158.305 110.813 253.289 255.924 253.289 58.051 0 100.257-13.187 116.083-21.101l-18.464-68.591c-23.743 10.559-55.416 18.464-94.973 18.464-97.615 0-168.845-60.686-168.845-176.77 0-105.543 60.686-174.128 166.203-174.128 36.94 0 73.872 7.924 94.973 18.457l18.457-71.23z" />
<glyph unicode="&#x1f339;" glyph-name="123" horiz-adv-x="1232" d="M152.718 618.093v0l-93.836-46.914-17.595 73.298 126.091 61.581h79.169v-513.145h-93.836v425.174zM425.423 192.917v58.651l61.581 55.72c120.229 111.423 178.868 172.997 178.868 243.377 0 46.914-23.465 85.039-90.906 85.039-43.979 0-85.039-23.465-111.423-43.979l-29.326 67.44c38.114 29.326 93.836 52.785 158.346 52.785 114.359 0 170.064-73.298 170.064-155.416 0-90.906-64.51-164.205-155.416-246.312l-43.979-35.185v-2.929h211.122v-82.104h-348.944zM868.182 292.613c20.53-11.724 67.44-32.255 117.294-32.255 73.298 0 105.554 41.044 102.624 82.104 0 61.581-55.72 87.975-117.294 87.975h-43.979v70.369h43.979c43.979 0 102.624 20.53 102.624 73.298 0 35.185-26.396 64.51-82.104 64.51-41.044 0-85.039-17.595-105.554-32.255l-23.465 70.369c29.326 20.53 85.039 38.114 146.613 38.114 105.554 0 161.275-58.651 161.275-126.091 0-52.785-32.255-96.765-93.836-120.229v-2.929c61.581-11.724 114.359-58.651 114.359-129.020 0-87.975-73.298-155.416-199.389-155.416-61.581 0-117.294 17.595-143.678 35.185l20.53 76.234z" />
<glyph unicode="&#x1f33a;" glyph-name="coding" horiz-adv-x="1393" d="M217.37 443.072l241.421 241.553c11.19 11.182 18.099 26.633 18.099 43.693 0 34.113-27.646 61.777-61.777 61.777-17.052 0-32.485-6.912-43.668-18.084v0l-284.223-284.399c-11.176-11.5-18.055-27.206-18.055-44.548s6.881-33.046 18.080-44.56l284.204-284.376c11.18-11.172 26.618-18.083 43.668-18.083 34.113 0 61.778 27.646 61.778 61.778 0 17.061-6.924 32.512-18.099 43.695v0zM1305.765 487.624l-284.228 284.399c-11.18 11.172-26.618 18.084-43.668 18.084-34.113 0-61.777-27.646-61.777-61.777 0-17.061 6.924-32.511 18.099-43.693v0l241.425-241.553-241.421-241.553c-11.19-11.183-18.099-26.634-18.099-43.695 0-34.113 27.646-61.778 61.778-61.778 17.052 0 32.485 6.911 43.668 18.084v0l284.223 284.399c11.173 11.5 18.055 27.206 18.055 44.548s-6.881 33.052-18.085 44.567l0.026-0.026zM609.515 101.283l-8.023 2.149c-24.782 6.881-42.648 29.249-42.648 55.791 0 5.253 0.703 10.365 2.019 15.204l-0.097-0.409 156.196 583.259c6.871 24.795 29.238 42.681 55.758 42.681 5.253 0 10.356-0.701 15.204-2.015l-0.409 0.096 8.023-2.146c24.782-6.881 42.648-29.247 42.648-55.788 0-5.253-0.703-10.365-2.020-15.204l0.097 0.409-156.196-583.259c-6.871-24.795-29.238-42.684-55.758-42.684-5.253 0-10.356 0.701-15.204 2.015l0.409-0.096z" />
<glyph unicode="&#x1f354;" glyph-name="table" horiz-adv-x="1243" d="M365.714 960v-292.571h877.714v292.571h-877.714zM0 228.571v-292.571h292.571v292.571h-292.571zM73.143 155.429h146.286v-146.286h-146.286v146.286zM0 594.286v-292.571h292.571v292.571h-292.571zM73.143 521.143h146.286v-146.286h-146.286v146.286zM365.714 228.571v-292.571h877.714v292.571h-877.714zM438.857 155.429h731.429v-146.286h-731.429v146.286zM365.714 594.286v-292.571h877.714v292.571h-877.714zM438.857 521.143h731.429v-146.286h-731.429v146.286zM0 960v-292.571h292.571v292.571h-292.571z" />
<glyph unicode="&#x1f39c;" glyph-name="pivot-chart" horiz-adv-x="1088" d="M320 960v-256h768v256h-768zM0 640v-704h256v704h-256zM64 576h128v-576h-128v576zM0 960v-256h256v256h-256zM832 384v-128c0-35.346-28.654-64-64-64v0h-192v-128h256c70.692 0 128 57.308 128 128v0 192h-128zM896 640l-192-256h384zM320 128l256-192v384z" />
<glyph unicode="&#x1f3b9;" glyph-name="bullet-chart" horiz-adv-x="1216" d="M64 512v-128h960v128h-960zM64 832v-128h576v128h-576zM512 192h-448v-128h448v128zM64 640h1152v-64h-1152v64zM64 960h1152v-64h-1152v64zM64 320h1152v-64h-1152v64zM64 0h1152v-64h-1152v64zM0 896h64v-256h-64v256zM1152 896h64v-256h-64v256zM0 576h64v-256h-64v256zM1152 576h64v-256h-64v256zM0 256h64v-256h-64v256zM1152 256h64v-256h-64v256zM768 896h64v-256h-64v256zM768 576h64v-256h-64v256zM768 256h64v-256h-64v256zM384 896h64v-256h-64v256zM384 576h64v-256h-64v256zM384 256h64v-256h-64v256zM0 960h64v-1024h-64v1024z" />
<glyph unicode="&#x1f3f4;" glyph-name="flag" horiz-adv-x="768" d="M0 960h170.667v-1024h-170.667v1024zM768 960h-597.333v-512h597.333l-238.933 256z" />
<glyph unicode="&#x1f3fb;" glyph-name="copy-report" horiz-adv-x="1081" d="M739.556 789.333v78.108c0 0 0 0 0 0.001 0 50.998-41.245 92.364-92.198 92.558h-554.799c-51.041-0.193-92.365-41.518-92.558-92.54v-554.799c0.194-50.972 41.559-92.217 92.558-92.217 0 0 0 0 0.001 0h77.198v430.194c0 76.599 62.096 138.695 138.695 138.695v0h431.104zM1011.94 675.556h-601.657c-38.080 0-68.949-30.87-68.949-68.949v0-601.657c0-38.080 30.87-68.949 68.949-68.949v0h601.657c38.080 0 68.949 30.87 68.949 68.949v0 601.657c0 38.080-30.87 68.949-68.949 68.949v0zM967.111 49.778h-512v512h512v-512z" />
<glyph unicode="&#x1f3fe;" glyph-name="db-oracle" horiz-adv-x="1383" d="M692.338 836.267c-0.853-31.004 1.707-62.009 1.707-93.013 0-11.093 3.698-14.507 14.507-15.076 43.804-1.991 87.893-3.129 131.698 0.569 58.596 5.12 117.191 11.947 172.089 35.556 14.791 6.542 30.72 12.8 37.262 30.151 1.991 31.573 2.276 63.147-0.284 94.72-2.276 10.24-10.524 15.929-18.489 21.049-21.049 13.369-44.373 21.049-67.982 27.591-51.2 13.653-103.253 19.342-155.876 21.333-55.751 2.276-111.787 0-170.382-10.24 44.942-27.022 56.889-66.276 55.751-112.64zM1030.827 721.067c-11.947-6.258-23.893-11.662-36.693-16.213-71.396-24.462-145.636-28.444-224.427-30.436-17.92 0.853-40.107 1.422-62.009 3.129-9.387 0.569-13.938-0.853-13.084-11.662 1.138-13.938 1.138-27.876 0.853-41.813-0.284-9.387 3.413-11.947 12.231-11.947 19.342 0.569 38.684 0 58.027 0.284 44.089 0.853 74.24-20.48 93.298-58.596 4.267-8.249 8.818-9.956 17.351-9.671 27.022 0.569 53.476 4.836 79.929 8.533 25.884 3.698 51.484 9.956 75.093 21.902 14.222 7.111 21.333 17.92 21.049 34.418-0.853 33.28-0.284 66.56-0.284 99.84 0 17.351-5.404 20.764-21.333 12.231zM316.587 567.182c11.093-13.369 25.884-23.893 33.564-40.107 0.284-0.853-1.422-2.844-1.991-4.267-9.102-26.169-7.111-31.004 18.773-42.951 4.267-1.991 8.533-4.267 12.8-6.542 22.756-11.093 30.151-9.102 43.236 11.947 3.129 4.836 5.689 8.533 12.231 8.249 11.662-0.569 23.609-1.138 35.271-0.853 5.973 0 8.533-2.844 9.956-7.964 3.698-12.8 10.524-25.6 24.462-22.756 19.627 3.982 41.529 5.973 55.467 24.178 3.413 4.551 4.267 10.524 1.991 15.36-7.964 16.782 1.422 25.884 13.653 34.133 1.422 0.284 2.844 0.569 3.982 1.138 1.991 2.844 4.836 5.404 7.396 7.964 4.551 4.267 8.249 9.387 13.938 12.516 3.129-6.827 12.516-3.982 15.644-10.524-0.569-0.569-1.138-1.422-1.991-1.991 0.284 0 0.284-0.284 0.569-0.284 1.422-0.853 3.129-1.707 4.836-2.276-0.284 0.569-0.569 1.138-0.569 1.991 3.982 0.853 8.818 0 11.378 4.551 3.413 1.991 6.827 3.413 10.24 4.836 2.56 2.844 4.267 5.973 5.12 9.956 4.267 9.102 8.533 17.92 12.8 27.022 8.818 18.489 6.258 28.729-11.662 38.4-21.618 11.662-6.542 30.72-10.24 45.796-2.844 11.093 6.827 12.231 14.222 15.36 15.644 6.258 20.764 16.213 16.498 31.289-11.947 42.098-20.764 54.044-39.822 47.787-15.644-5.12-23.893 0.284-32.427 11.093-4.267 5.404-8.818 10.809-14.222 15.076-8.818 7.396-9.956 14.222-4.551 24.747 7.964 15.929 3.982 25.316-12.231 33.849-9.102 4.836-18.204 9.102-27.307 13.369-15.36 7.111-26.738 4.836-33.564-10.24-5.973-13.084-14.791-15.076-26.738-13.938-5.973 0.569-11.947 1.138-17.636 0.569-10.809-0.853-16.213 3.129-19.627 13.653-5.973 17.636-15.644 21.618-33.849 15.644-10.24-3.129-20.196-6.542-30.436-10.24-12.231-4.551-19.627-14.222-15.076-26.169 6.827-18.204-1.991-27.591-14.507-37.262-4.551-3.413-9.387-7.396-13.084-11.947-6.542-8.249-13.369-7.964-22.187-3.698-16.498 7.68-25.316 4.267-33.849-11.947-4.836-9.387-9.671-19.058-13.938-28.729-6.542-14.791-3.982-25.6 9.956-32.142 11.947-5.689 15.36-13.084 13.653-25.316-0.853-6.827-0.853-13.938-0.569-20.764 0.284-9.956-3.129-15.076-13.369-18.204-15.644-4.551-20.48-15.36-15.929-31.004 3.129-10.24 6.258-20.48 10.24-30.436 6.258-16.782 15.076-21.333 32.427-16.782 5.689 1.991 11.662 5.404 17.067-1.138zM285.867 608.996c-3.413 8.818-4.267 14.791 6.827 18.204 11.662 3.413 16.782 12.231 17.351 24.178 0.569 10.809 1.422 21.333 1.991 32.142 2.276 20.196 1.138 37.831-21.333 48.64-8.533 3.982 2.276 12.516 4.267 19.058 1.422 5.12 3.982 10.524 11.093 6.542 16.782-9.102 29.582-1.991 41.529 9.671 10.809 10.524 22.187 20.196 33.28 30.151 9.387 8.818 13.938 19.342 7.964 31.573-4.551 9.387 0.284 12.8 7.964 13.938 7.68 1.422 16.782 11.662 21.618-4.267 4.267-14.222 15.076-19.911 29.582-20.196 13.938-0.284 27.876-0.284 41.813-1.707 15.076-1.422 25.316 4.551 31.004 17.636 3.982 9.387 9.387 9.671 15.644 4.267 5.404-4.551 21.049-1.991 12.516-17.351-7.111-12.8-3.698-24.462 6.258-34.987 11.093-11.662 21.902-23.609 32.427-35.556 9.671-11.378 21.333-16.498 35.556-9.956 9.102 4.267 12.231-1.138 12.8-7.68 0.569-6.827 12.8-16.213-1.991-21.049-17.636-5.973-23.609-18.204-22.756-35.84 0.569-9.671 0.284-19.342-0.853-29.013-1.991-17.636 1.422-31.858 19.911-39.253 10.24-4.267 3.129-11.093 0.284-15.36-3.413-5.12-1.707-17.636-13.653-12.231-15.929 7.396-28.444 3.698-40.391-8.533-11.093-11.378-23.609-21.618-35.556-32.427-9.102-8.249-13.369-18.204-8.533-30.151 4.836-11.662-2.844-13.653-10.809-16.213-7.68-2.56-15.36-7.111-18.773 5.689-3.982 14.222-15.076 18.773-28.16 19.627-12.231 0.853-24.747 0.284-36.978 1.138-16.213 1.422-29.582-1.707-36.693-18.489-4.551-10.809-11.662-3.413-16.498-0.569-5.12 3.129-17.067 2.56-11.093 14.507 7.396 14.791 3.129 26.453-8.249 37.547-11.662 11.662-22.471 24.462-33.564 36.693-7.964 8.533-17.351 12.8-28.729 7.964-12.231-5.404-13.653 3.413-17.067 11.662zM1052.16 486.4c0 39.253 0 38.969-35.84 25.6-7.111-2.56-14.222-4.836-21.333-6.542-34.987-8.533-70.827-11.378-106.667-11.662-13.084 0-16.498-3.698-17.067-17.067-1.707-50.062 6.827-100.409-7.396-150.187 19.058-1.991 36.693 3.129 54.329 6.258 36.978 5.973 73.102 15.36 106.667 33.564 18.489 9.956 29.013 23.609 27.307 46.364-1.138 24.178 0 48.924 0 73.671zM195.698 114.347c-18.204 0.284-36.409 0-54.613 0-18.773 0-37.547 0.284-56.32 0-47.218-1.138-84.48-39.538-84.764-87.040-0.284-49.209 36.124-88.747 83.911-89.884 37.547-0.853 75.093-0.853 112.64-0.284 47.502 0.853 86.187 41.813 85.618 89.031-0.853 48.64-38.684 87.324-86.471 88.178zM191.431-31.858c-16.498-0.569-33.28 0-49.778 0 0 0 0 0 0-0.284-15.929 0-32.142-0.284-48.071 0-34.987 0.853-60.018 24.462-60.302 57.458-0.284 31.858 23.324 57.458 57.742 58.596 34.133 1.138 68.551 1.138 102.684-0.284 32.427-1.422 55.467-27.876 54.898-59.449-1.138-31.004-25.316-55.182-57.173-56.036zM1372.16-32.142c-35.271-0.284-70.827 0-106.098 0-21.902 0-39.538 8.533-51.769 27.022-2.56 3.982-6.542 8.249-3.982 13.084 2.276 4.551 7.68 2.276 11.662 2.276 37.547 0.284 75.093 0.853 112.64-0.284 14.507-0.284 24.747 3.129 30.436 17.067 1.707 4.267 7.964 7.396 4.836 12.516-2.844 4.551-8.818 1.991-13.369 1.991-44.942 0.284-90.169 0.284-135.111 0-12.516 0-14.222 3.982-7.964 13.938 12.231 19.058 29.867 28.444 52.622 28.444 24.178 0 48.356 1.707 72.249-0.284 22.756-1.991 35.271 7.111 42.382 30.72-41.244 0-81.067 0.284-121.173 0-49.209-0.284-87.609-38.969-87.609-87.893-0.284-49.493 38.4-88.747 88.178-89.316 28.444-0.284 56.889 1.138 85.333-0.569 16.782-0.853 26.453 4.551 34.418 19.342 5.973 11.662 2.276 12.231-7.68 11.947zM510.578 55.467c-0.569 33.849-25.031 58.311-59.449 58.596-44.942 0.284-89.884-0.284-135.111 0.284-11.662 0.284-15.644-2.56-15.36-15.076 0.569-48.64 0.569-97.564 0-146.204 0-11.662 1.991-17.351 15.644-16.782 13.084 0.284 19.058 2.276 18.489 17.351-1.138 38.684-0.284 77.084-0.284 115.769 0 6.827-1.707 14.507 9.387 14.507 35.271-0.284 70.827 0.284 106.098-0.569 15.929-0.284 26.738-13.369 26.738-28.444 0.284-15.36-10.524-27.307-26.453-29.013-6.827-0.853-13.938-0.284-20.764-0.284-24.178 0-48.64 0-77.653 0 30.72-26.738 59.164-48.64 83.911-73.956 19.058-19.627 39.822-13.653 62.009-10.809-19.911 16.782-39.538 33.564-62.578 53.191 8.533 0.569 12.8 0.569 17.067 0.853 34.133 1.707 58.596 27.591 58.311 60.587zM667.022 98.987c-15.644 24.178-35.271 23.609-51.2-0.284-19.911-29.867-38.969-60.018-58.311-90.169-14.507-22.471-30.151-44.942-42.382-69.404 33.564-6.258 35.556-5.404 51.769 20.196 21.618 34.418 43.236 68.836 65.138 103.253 9.671 15.36 9.671 15.36 19.627-0.853 10.24-16.213 20.48-32.711 30.436-49.209 2.276-3.413 5.973-8.533 4.836-11.093-1.991-5.404-8.249-2.56-12.8-2.56-23.893-0.284-47.502 0-72.533 0 7.964-21.333 17.92-34.133 41.529-30.72 18.489 2.56 37.547 0 56.32 0.569 8.533 0.284 15.36-1.422 17.92-9.671 8.533-26.453 29.013-22.756 50.631-20.48-1.422 3.413-2.276 5.689-3.413 7.964-32.427 50.631-64.853 101.547-97.564 152.462zM618.951 542.72c5.404-7.111 12.231-10.524 20.764-9.102 6.827 1.138 13.369 3.982 19.911 6.542 16.213 6.827 34.418 10.809 38.116 32.427 0.853 5.404 6.827 6.258 11.947 5.973 5.404 0 9.102-2.56 10.24-8.249 1.707-7.396 3.698-16.213 10.809-19.058 20.196-8.533 38.969-27.307 64-12.8 5.404 3.129 10.24 0.569 14.222-3.698 3.982-3.982 4.267-8.249 1.422-13.084-3.129-5.12-7.68-10.809-5.689-16.213 9.387-23.324 7.396-53.76 39.538-62.862 6.258-1.707 7.111-7.396 7.111-12.8s-2.844-8.249-8.249-10.24c-26.738-9.387-43.236-47.218-31.858-72.818 2.844-6.542 1.991-11.093-2.844-15.929-4.551-4.551-9.387-4.836-14.507-0.853-5.404 3.982-11.662 7.396-17.92 5.12-22.756-7.964-49.209-9.671-60.587-36.693-2.276-5.689-7.396-7.396-13.084-7.111-6.542 0-9.102 3.982-10.524 9.956-2.56 10.24-9.956 16.213-19.342 20.196-8.249 3.698-17.067 6.827-25.316 10.24-8.818 3.982-17.351 4.551-25.884-1.138-4.551-3.129-9.671-5.12-14.507 0-5.12 5.12-7.111 10.524-2.844 17.351 6.258 9.671 4.267 19.342 0.284 29.298-4.267 10.524-7.964 21.049-13.653 31.004-3.982 7.396-9.387 13.084-17.351 15.929-5.404 1.707-9.956 3.413-9.671 10.524 0.284 7.68 3.413 11.947 10.809 13.938 10.809 3.129 16.782 10.809 20.48 21.049 2.844 7.396 5.404 15.076 9.102 22.187 4.836 9.387 5.689 18.489-0.284 27.307s-2.844 15.076 4.551 20.48c0 0 1.991 1.707 4.551 2.56 2.276 0.853 8.818-2.56 8.818-2.56-0.284 1.138-9.102 13.653-16.782 18.489-2.56 1.707-17.92-12.516-21.333-17.067-2.276-2.844-2.276-4.551-3.413-4.551-2.844-3.982-3.982-8.818-1.138-14.791 12.231-10.24 13.084-21.618 4.551-34.702-1.422-2.276-2.56-4.836-3.129-7.396-2.844-10.24-7.396-17.351-20.196-15.36-6.827 0.853-12.8-2.276-13.938-10.24-1.422-10.524-2.844-21.333-1.707-31.858 0.853-8.818 5.404-15.076 14.222-13.938 12.516 1.422 17.067-5.689 20.48-15.36 2.56-7.68 5.973-15.36 9.387-22.756 3.129-6.827 3.698-12.231-3.129-17.636-10.809-8.818-8.249-18.204 1.707-27.307 3.413-3.129 6.542-6.542 9.671-10.24 9.387-11.378 19.058-13.938 29.582-2.56 4.836 5.404 9.956 6.542 16.782 2.844 7.111-3.698 14.507-6.827 22.187-9.102 7.111-2.276 10.809-6.258 9.956-13.938-1.422-15.076 6.827-19.911 20.48-19.342 5.973 0.284 11.947 0.284 17.636-0.284 11.947-1.138 19.058 3.698 19.058 15.644 0 11.093 5.12 16.213 15.36 18.773 6.542 1.707 13.369 4.551 19.342 7.964 8.533 4.836 15.644 5.404 22.187-3.413 4.551-5.973 11.662-7.68 17.067-4.267 11.378 7.111 21.049 16.498 28.444 27.591 2.844 3.982 2.276 9.102-1.138 11.947-18.204 14.791-6.258 29.298-0.569 44.089 3.129 8.533 7.396 13.369 17.351 12.231 12.231-1.422 17.636 5.689 18.489 16.782 0.569 7.964 0.284 16.213 0.284 24.178-0.284 10.524-6.542 17.067-16.213 15.929-14.222-1.422-17.351 7.396-21.049 18.773-1.707 5.689-4.267 11.378-7.111 16.498-4.267 8.249-4.267 14.222 3.413 20.48 9.956 7.964 9.102 17.067-0.284 25.884-4.551 4.267-8.818 9.387-13.084 13.938-8.818 9.387-18.489 11.378-27.307 0.569-6.258-7.111-12.231-7.111-19.911-3.129-4.836 2.276-9.671 4.551-14.791 5.973-10.809 3.129-17.351 8.533-15.644 21.618 0.853 7.68-3.413 13.938-11.662 14.507-11.093 0.853-22.471 0.853-33.564 0.284-6.827-0.284-11.662-5.689-11.093-11.662 1.138-19.911-13.369-22.756-27.022-26.738-4.267-0.853-8.249-1.991-12.231-3.698-1.991-2.276-18.773 3.982-29.582 5.689-3.698 0.569-7.964 0-8.818-0.853-2.276-1.138 13.084-14.507 15.644-15.36zM619.804 544.427c0.284-0.569 0.284-1.138 0.569-1.991 0.569 0 0.853-0.284 1.422-0.569 3.982-0.569 7.396 0.284 10.524 3.129s6.258 5.689 9.102 8.818c-3.413-1.422-7.111-2.844-10.24-4.836-2.56-4.551-7.111-3.982-11.378-4.551zM951.467-32.142c-34.133 0.284-68.551 0-102.684 0.284-36.124 0.284-61.44 24.462-61.44 58.027 0 32.996 25.884 57.458 61.724 58.027 25.6 0.284 51.484 1.422 77.084-0.284 17.067-1.138 25.031 6.258 32.711 19.342 5.973 10.524 1.991 11.378-7.111 11.378-19.911-0.284-39.538 0-59.449 0-17.067 0-34.418-0.569-51.484 0-46.080 1.707-87.040-41.529-87.040-88.462 0.284-49.209 38.684-88.462 87.893-89.031 29.582-0.284 58.88 0.569 88.462-0.569 13.938-0.569 23.893 2.56 29.298 16.213 1.707 4.267 7.964 7.68 5.689 12.516-2.844 4.836-9.102 2.56-13.653 2.56zM1163.093-32.142c-41.813 0-83.627 0.569-125.44-0.284-14.507-0.284-19.627 3.413-19.342 18.489 1.138 38.684 0 77.084 0.853 115.769 0.284 13.653-7.396 13.084-16.498 12.516-8.249-0.569-18.773 3.698-18.204-12.231 0.853-24.178 0.284-48.071 0.284-72.249 0 0 0 0 0 0 0-23.040 0-46.080 0-69.12 0.284-19.058 4.836-23.893 23.609-23.893 43.52 0 86.756 0.853 130.276-0.569 15.644-0.569 25.6 4.267 31.573 17.92 1.707 3.698 7.111 6.827 4.551 11.093-1.991 4.551-7.68 2.56-11.662 2.56zM462.791 591.076c42.667 0.569 77.369 35.84 77.369 78.507-0.284 42.382-36.124 77.653-78.507 77.369-42.951-0.284-78.507-35.84-78.222-77.369 0.569-43.52 36.409-79.076 79.36-78.507zM462.222 720.782c28.444-0.853 52.338-25.316 51.769-52.907-0.853-27.307-24.747-50.916-51.769-51.2-28.444 0-52.053 23.609-51.769 52.338 0.284 29.298 23.609 52.622 51.769 51.769zM706.276 377.458c31.573 0 57.742 25.6 57.742 56.604 0 31.289-26.169 57.742-56.889 57.742-31.573 0-57.458-25.6-57.458-56.889 0-31.858 25.031-57.458 56.604-57.458zM707.129 478.436c24.462-0.284 43.236-19.627 43.236-44.373 0-24.178-19.911-43.804-44.089-43.52-24.462 0.569-43.52 19.911-43.236 44.373 0 23.893 20.196 43.804 44.089 43.52z" />
<glyph unicode="&#x1f465;" glyph-name="undo" d="M512 896c-141.384 0-269.376-57.32-362.032-149.978l-149.968 149.978v-384h384l-143.532 143.522c69.496 69.492 165.492 112.478 271.532 112.478 212.068 0 384-171.924 384-384 0-114.696-50.292-217.636-130.018-288l84.666-96c106.302 93.816 173.352 231.076 173.352 384 0 282.77-229.23 512-512 512z" />
<glyph unicode="&#x1f466;" glyph-name="user" d="M874.040 298.040c-55.766 55.764-122.142 97.046-194.562 122.036 77.564 53.422 128.522 142.828 128.522 243.924 0 163.214-132.786 296-296 296s-296-132.786-296-296c0-101.096 50.958-190.502 128.524-243.924-72.42-24.99-138.796-66.272-194.562-122.036-96.704-96.706-149.962-225.28-149.962-362.040h80c0 238.206 193.794 432 432 432s432-193.794 432-432h80c0 136.76-53.258 265.334-149.96 362.040zM512 448c-119.102 0-216 96.896-216 216s96.898 216 216 216c119.102 0 216-96.896 216-216s-96.898-216-216-216z" />
<glyph unicode="&#x1f4a1;" glyph-name="uni1F4A1" horiz-adv-x="696" d="M196.652 142.837c0-10.185 0-39.174 0-49.359 0-57.194 30.555-82.265 75.997-92.45 8.618-30.555 38.39-54.843 71.296-54.843s61.894 24.288 71.296 54.843c46.225 10.185 75.997 34.473 75.997 92.45 0 10.185 0 39.174 0 49.359h-294.586z" />
<glyph unicode="&#x1f4a2;" glyph-name="uni1F4A2" horiz-adv-x="696" d="M687.89 616.055c0 191.168-157.478 348.646-348.646 343.945-181.766-4.701-333.76-151.994-338.461-329.059-4.701-117.521 49.359-225.64 137.108-289.885 39.174-29.772 58.761-73.647 58.761-117.521v0h294.586c0 43.875 19.587 88.533 54.060 117.521 88.533 58.761 142.592 162.179 142.592 274.999z" />
<glyph unicode="&#x1f4a3;" glyph-name="scorecard" horiz-adv-x="1280" d="M64 896v-896h1152v896h-1152zM0 960h1280v-1024h-1280v1024zM192 768v-128h896v128h-896zM256.832 304.448l6.912 6.72-0.085-0.070c10.382 8.824 23.832 14.148 38.525 14.148 0.954 0 1.902-0.022 2.712-0.062l-0.153-0.008c1.119 0.069 2.248 0.105 3.385 0.105 15.565 0 29.59-6.599 39.456-17.185l-0.123 0.165c9.604-12.355 15.323-27.88 15.323-44.74 0-1.7-0.058-3.387-0.16-4.833l-0.015 0.269c0.134-1.988 0.202-3.993 0.202-6.015 0-17.030-4.834-32.931-12.988-46.030l-0.091-0.135c-7.81-11.055-20.69-18.275-35.255-18.275-0.669 0-1.334 0.015-1.902 0.042l0.113 0.004c-0.805-0.040-1.615-0.060-2.43-0.060-12.685 0-24.229 4.888-32.819 12.856l0.020-0.021c-9.206 9.627-15.062 22.484-15.7 36.821h-70.4l0.001-0.071c0.266-21.341 6.623-41.214 17.151-57.529l0.257-0.423c10.612-16.356 25.498-29.682 43.711-38.681l-0.765 0.35c18.055-9.111 38.461-14.243 60.065-14.243 0.415 0 0.829 0.002 1.179 0.005l-0.162 0.003c1.095-0.028 2.194-0.042 3.296-0.042 22.563 0 43.743 5.924 61.442 15.975l0.501 0.273c17.6 10.376 31.977 25.636 41.547 44.527l-0.375-0.827c9.632 19.253 15.052 40.979 15.052 63.971 0 0.864-0.008 1.725-0.021 2.456l-0.021-0.405c0.189 2.965 0.285 5.955 0.285 8.968 0 32.288-11.038 61.997-29.321 85.261l-0.082 0.093c-18.477 20.574-45.284 33.515-75.114 33.515-1.847 0-3.683-0.050-5.251-0.137h0.016c-0.101 0-0.201 0-0.302 0-19.746 0-38.255-5.298-53.666-14.272l8.832 81.28h142.784v62.656h-201.216l-20.736-192zM512 160l0.007 0.113c-0.068-0.854-0.103-1.718-0.103-2.589 0-17.673 14.327-32 32-32s32 14.327 32 32c0 0.872-0.035 1.735-0.096 2.477l-0.002-0.061c0.017 0.424 0.025 0.85 0.025 1.279 0 8.656-3.479 16.5-9.111 22.206l0.021-0.019c-5.998 5.574-14.035 8.983-22.869 8.983s-16.871-3.409-22.848-8.964l0.005 0.005c-5.6-5.704-9.055-13.523-9.055-22.149 0-0.45 0.009-0.898 0.026-1.28zM930.368 282.24l-33.664-44.096v-109.184h-64.704v382.208h64.768v-173.248l28.48 47.488 80.128 125.76h79.616l-111.616-169.856 115.2-212.352h-76.8zM512 160c-0.017 0.382-0.026 0.83-0.026 1.28 0 8.626 3.454 16.444 9.055 22.149l-0.005-0.005c5.977 5.555 14.014 8.964 22.848 8.964s16.871-3.409 22.869-8.983l-0.021 0.019c5.633-5.706 9.111-13.55 9.111-22.206 0-0.428-0.009-0.855-0.025-1.279l0.002 0.061c0.061-0.742 0.096-1.605 0.096-2.477 0-17.673-14.327-32-32-32s-32 14.327-32 32c0 0.872 0.035 1.735 0.103 2.589l-0.007-0.113zM704 128.96h-58.624v292.416l-70.016-28.096v61.696l122.368 56.704h6.272v-382.72z" />
<glyph unicode="&#x1f4ac;" glyph-name="line-chart" horiz-adv-x="1489" d="M1298.24 808.607c-0.203 0.002-0.451 0.002-0.699 0.002-76.145 0-137.865-61.731-137.865-137.865 0-31.839 10.796-61.146 28.916-84.491l-0.237 0.311-209.897-239.874c-19.581 11.697-43.179 18.625-68.403 18.625-32.672 0-62.633-11.608-85.983-30.945l0.226 0.182-124.897 104.117c10.57 18.792 16.864 41.222 17.016 65.114v0.044c0.001 0.135 0.001 0.293 0.001 0.457 0 76.515-62.021 138.536-138.536 138.536s-138.536-62.021-138.536-138.536c0-20.532 4.472-40.035 12.49-57.564l-0.352 0.868-167.456-119.637c-24.541 22.68-57.465 36.58-93.646 36.58-76.291 0-138.137-61.851-138.137-138.137s61.851-138.137 138.137-138.137c76.291 0 138.137 61.851 138.137 138.137 0 20.511-4.473 39.974-12.49 57.481l0.351-0.863 167.456 119.637c24.397-23.134 57.435-37.351 93.789-37.351 32.845 0 62.994 11.607 86.53 30.945l-0.243-0.193 124.897-104.117c-10.57-18.792-16.864-41.222-17.016-65.114v-0.044c-0.002-0.248-0.004-0.556-0.004-0.847 0-76.515 62.021-138.536 138.536-138.536s138.536 62.021 138.536 138.536c0 31.891-10.776 61.264-28.879 84.675l0.243-0.321 209.897 239.874c19.512-11.57 42.98-18.467 68.058-18.619h0.041c76.515 0 138.536 62.021 138.536 138.536s-62.021 138.536-138.536 138.536v0zM189.989 143.655c-45.91 0-83.118 37.21-83.118 83.118s37.21 83.118 83.118 83.118c45.91 0 83.118-37.21 83.118-83.118v0c0-45.91-37.21-83.118-83.118-83.118v0zM577.879 420.727c-45.91 0-83.118 37.21-83.118 83.118s37.21 83.118 83.118 83.118c45.91 0 83.118-37.21 83.118-83.118v0c0-45.91-37.21-83.118-83.118-83.118v0zM910.35 143.655c-45.91 0-83.118 37.21-83.118 83.118s37.21 83.118 83.118 83.118c45.91 0 83.118-37.21 83.118-83.118v0c0-45.91-37.21-83.118-83.118-83.118v0zM1298.24 586.963c-45.91 0-83.118 37.21-83.118 83.118s37.21 83.118 83.118 83.118c45.91 0 83.118-37.21 83.118-83.118v0c0-45.91-37.21-83.118-83.118-83.118v0z" />
<glyph unicode="&#x1f4be;" glyph-name="floppy-disk" d="M69.76-64.64h885.12c38.513 0.036 69.724 31.247 69.76 69.756v672.9c0 0.111 0.001 0.242 0.001 0.373 0 28.789-11.748 54.834-30.712 73.602l-0.009 0.009-225.92 208v-384h-512v384h-186.24c-38.521-0.073-69.724-31.298-69.76-69.82v-885.060c0.036-38.513 31.247-69.724 69.756-69.76h0.004zM576 960h128v-320h-128v320z" />
<glyph unicode="&#x1f4c4;" glyph-name="note" horiz-adv-x="896" d="M768 960h-640c-70.417-0.363-127.36-57.531-127.36-127.998 0-0.001 0-0.001 0-0.002v0l-0.64-768c0.182-70.619 57.381-127.818 127.983-128h640.017c70.59 0.254 127.746 57.41 128 127.976v768.024c-0.254 70.59-57.41 127.746-127.976 128h-0.024zM768 64h-640v768h640v-768zM192 704h128v-128h-128v128zM192 512h128v-128h-128v128zM192 320h128v-128h-128v128zM384 704h256v-64h-256v64zM384 512h256v-64h-256v64zM384 320h256v-64h-256v64z" />
<glyph unicode="&#x1f4c5;" glyph-name="calendar" d="M763.262 743.884c39.243 0 71.031 31.577 71.031 70.89v74.195c0 39.348-31.753 71.031-71.031 71.031s-70.995-31.647-70.995-71.031v-74.23c0.035-39.278 31.753-70.855 70.995-70.855zM1015.596 837.138h-142.975v-36.113c0-59.602-48.42-108.163-108.128-108.163-59.778 0-108.093 48.561-108.093 108.163v36.113h-288.518v-36.113c0-59.602-48.491-108.163-108.163-108.163s-108.128 48.526-108.128 108.163v36.113l-144.276 1.793v-902.932l1009.372 0.211-1.090 900.927zM944.565 7.91h-865.096v576.824h865.166v-576.824h-0.070zM258.593 743.884c39.243 0 71.066 31.577 71.066 70.89v74.195c0 39.383-31.823 71.031-71.066 71.031s-70.96-31.647-70.96-71.031v-74.23c0-39.278 31.682-70.855 70.96-70.855zM368.093 507.339h113.614v-100.287h-113.614v100.287zM551.788 507.339h113.719v-100.287h-113.719v100.287zM722.155 507.339h113.614v-100.287h-113.614v100.287zM368.093 340.804h113.614v-100.216h-113.614v100.216zM551.788 340.804h113.719v-100.216h-113.719v100.216zM722.155 340.804h113.614v-100.216h-113.614v100.216zM368.093 170.963h113.614v-100.216h-113.614v100.216zM187.633 340.804h113.543v-100.216h-113.543v100.216zM187.633 170.963h113.543v-100.216h-113.543v100.216zM551.788 170.963h113.719v-100.216h-113.719v100.216zM722.155 170.963h113.614v-100.216h-113.614v100.216z" />
<glyph unicode="&#x1f4c6;" glyph-name="calendar-small" d="M926.72 842.24h-119.467v100.693h-98.987v-100.693h-394.24v100.693h-98.987v-100.693h-117.76c-44.373 0-80.213-34.133-80.213-78.507v-732.16c0-42.667 35.84-78.507 80.213-78.507h829.44c44.373 0 78.507 35.84 78.507 78.507v732.16c1.707 44.373-34.133 78.507-78.507 78.507zM907.947 52.053h-791.893v494.933h791.893v-494.933zM907.947 645.973h-791.893v98.987h791.893v-98.987zM471.040 448h98.987v-98.987h-98.987v98.987zM669.013 448h98.987v-98.987h-98.987v98.987zM471.040 250.027h98.987v-98.987h-98.987v98.987zM273.067 250.027h98.987v-98.987h-98.987v98.987z" />
<glyph unicode="&#x1f4d0;" glyph-name="tree-map" horiz-adv-x="1152" d="M0 384h700.16v576h-700.16zM64 896h576v-448h-576zM0-64h700.16v384h-700.16zM64 261.12h576v-261.12h-576zM769.92 960h382.080v-445.44h-382.080v445.44zM769.92 128h382.080v-192h-382.080v192zM769.92 448h382.080v-252.8h-382.080v252.8z" />
<glyph unicode="&#x1f4db;" glyph-name="delete" horiz-adv-x="763" d="M763.733 874.667h-158.72v85.333h-437.76v-85.333h-167.253l17.067-170.667h729.6zM95.573-64h572.587l69.12 682.667h-711.68z" />
<glyph unicode="&#x1f4e2;" glyph-name="info" d="M512 960v0c-282.77 0-512-229.23-512-512v0c0-282.77 229.23-512 512-512s512 229.23 512 512c0 282.77-229.23 512-512 512zM382.488 577.122h180.419v-398.97h-118.735v306.469h-61.635c-13.465 0-24.381 10.916-24.381 24.381v0 43.593c0 0.043 0 0.095 0 0.146 0 13.448 10.888 24.353 24.33 24.381h0.003zM568.71 692.102c0-0.101 0.001-0.221 0.001-0.341 0-41.311-33.489-74.801-74.801-74.801s-74.801 33.489-74.801 74.801c0 41.311 33.489 74.8 74.8 74.801v0c0.043 0 0.095 0 0.147 0 41.162 0 74.543-33.313 74.654-74.449v-0.011z" />
<glyph unicode="&#x1f4f1;" glyph-name="smart-phone" horiz-adv-x="652" d="M558.744 959.534l-465.528 0.466c-51.208 0-93.106-41.898-93.106-93.106v-837.95c0-51.208 41.898-93.106 93.106-93.106h465.528c51.208 0 93.106 41.898 93.106 93.106v837.95c0 51.208-41.898 92.64-93.106 92.64zM558.744 122.050h-465.528v651.739h465.528v-651.739z" />
<glyph unicode="&#x1f512;" glyph-name="padlock" d="M819.2 565.4h-36v101.2c0 149.6-121.6 271.4-271.2 271.4s-271.2-121.8-271.2-271.2v-101.2h-35.8c-35.4 0-64.2-28.8-64.2-64.2v-479.2c0-35.4 28.8-64.2 64.2-64.2h614.4c35.4 0 64.2 28.8 64.2 64.2v479.2c-0.2 35.2-29 64-64.4 64zM322.4 666.8c0 104.6 85 189.6 189.6 189.6s189.6-85 189.6-189.6v-101h-379.2v101zM801.6 39.6h-579.2v444.2h579.4v-444.2zM512 100.6c22.6 0 40.8 18.2 40.8 40.8v105.2c0 22.6-18.2 40.8-40.8 40.8s-40.8-18.2-40.8-40.8v-105.2c0-22.4 18.2-40.8 40.8-40.8z" />
<glyph unicode="&#x1f513;" glyph-name="open-in-new-window" d="M910.222 49.778h-796.444v796.444h402.015v113.778h-402.015c-60.681 0-113.778-53.096-113.778-113.778v-796.444c0-60.681 53.096-113.778 113.778-113.778h796.444c60.681 0 113.778 53.096 113.778 113.778v394.43h-113.778v-394.43zM629.57 960v-113.778h197.215l-553.719-561.304 75.852-75.852 561.304 553.719v-204.8h113.778v402.015z" />
<glyph unicode="&#x1f528;" glyph-name="crop" d="M744.727 308.362h93.092v372.365c0 51.432-41.657 93.092-93.092 93.092h-372.362v-93.092h372.365v-372.365zM279.273 215.273v744.727h-93.092v-186.181h-186.181v-93.092h186.181v-465.454c0-51.434 41.66-93.092 93.092-93.092h465.454v-186.181h93.092v186.181h186.181v93.092h-744.727z" />
<glyph unicode="&#x1f53b;" glyph-name="filter" horiz-adv-x="1243" d="M518.531 24v212h205.94v-212zM436.155 341.938l-164.698 212h700.148l-164.751-212zM189.025 660l-82.38 106v106h1029.71v-106l-82.38-106z" />
<glyph unicode="&#x1f558;" glyph-name="delay" d="M729.024 665.088c-55.392 55.664-132.060 90.112-216.774 90.112-0.088 0-0.176 0-0.264 0h0.014v-307.2l-217.088-217.088c56.264-60.492 136.307-98.215 225.16-98.215 169.662 0 307.2 137.538 307.2 307.2 0 88.869-37.736 168.924-98.058 225.017l-0.19 0.174zM512 960c-282.77 0-512-229.23-512-512s229.23-512 512-512c282.77 0 512 229.23 512 512v0c0 282.77-229.23 512-512 512v0zM512 38.4c-226.216 0-409.6 183.384-409.6 409.6s183.384 409.6 409.6 409.6c226.216 0 409.6-183.384 409.6-409.6v0c0-226.216-183.384-409.6-409.6-409.6v0z" />
<glyph unicode="&#x1f55d;" glyph-name="history" d="M150.4 809.6c92.709 92.985 220.932 150.516 362.592 150.516 282.77 0 512-229.23 512-512s-229.23-512-512-512c-237.241 0-436.796 161.357-494.906 380.312l-0.806 3.573h133.12c53.795-152.787 196.886-260.334 365.097-260.334 213.279 0 386.176 172.897 386.176 386.176s-172.897 386.176-386.176 386.176c-106.893 0-203.642-43.43-273.565-113.607l-0.011-0.012 142.080-142.4h-384v384zM544 704c17.673 0 32-14.327 32-32v0-256c0-17.673-14.327-32-32-32s-32 14.327-32 32v0 256c0 17.673 14.327 32 32 32v0zM544 448h192c17.673 0 32-14.327 32-32s-14.327-32-32-32v0h-192c-17.673 0-32 14.327-32 32s14.327 32 32 32v0z" />
<glyph unicode="&#x1f56e;" glyph-name="academy" horiz-adv-x="1381" d="M1380.546 596.822v30.412l-690.575 332.766-689.971-332.472v-30.994l689.971-332.481zM239.048 420.7v-198.876l415.972-200.442h69.9l414.828 199.891c0.399 0.876 0.773 1.751 1.141 2.633v196.796l-450.919-217.285zM1307.811 116.472v386.892l-54.611-27.551v-359.341l-35.586-108.45 53.79-72.022h18.201l53.79 72.022z" />
<glyph unicode="&#x1f575;" glyph-name="search" d="M980 112c16-18 26-40 26-66 0-50-40-92-92-92-24 0-48 12-64 28l-274 270c-54-32-118-52-186-52-208 0-372 166-372 372 0 208 164 370 372 370 204 0 372-164 372-370 0-68-20-132-52-188zM390 850c-154 0-280-124-280-278s126-278 280-278c152 0 278 124 278 278s-126 278-278 278z" />
<glyph unicode="&#x1f576;" glyph-name="view" horiz-adv-x="1314" d="M517.268 447.995c0-77.113 62.514-139.636 139.636-139.636s139.636 62.514 139.636 139.636v0 1.159c-14.797-14.876-35.3-24.104-57.941-24.104-44.693 0-80.977 35.874-81.682 80.39l-0.001 0.064c0.136 31.954 18.817 59.52 45.843 72.497l0.478 0.202c-13.726 4.953-29.596 7.824-46.119 7.824-76.603 0-138.809-61.586-139.823-137.944l-0.001-0.097zM1184.199 526.434c-86.681 108.761-297.399 289.561-527.079 289.561s-440.919-180.796-527.493-289.561c-19.154-20.482-30.93-48.097-30.93-78.439s11.764-57.957 30.976-78.493l-0.064 0.064c86.589-108.818 297.399-289.561 527.289-289.561s440.702 180.743 527.289 289.561c19.292 20.424 31.145 48.051 31.145 78.439s-11.852 58.015-31.199 78.493l0.054-0.059zM656.909 217.995c-125.871 1.513-227.314 103.897-227.314 229.969 0 127.032 102.965 230 230 230 127.032 0 229.988-102.965 230-229.969v-0.001c-0.746-127.186-104.023-230.006-231.303-230.006-0.498 0-0.996 0.002-1.49 0.007l0.064-0.001z" />
<glyph unicode="&#x1f589;" glyph-name="cursor" horiz-adv-x="569" d="M-0.22 918.382v-761.306l208.431 152.238 149.335-332.488 111.987 49.702-146.203 335.619 245.779 52.834-569.328 503.4z" />
<glyph unicode="&#x1f59f;" glyph-name="uni1F59F" horiz-adv-x="847" d="M747.302 830.619c0 0.051 0 0.113 0 0.176 0 50.929-41.199 92.233-92.089 92.406h-462.863c-50.9-0.173-92.099-41.478-92.099-92.406 0-0.063 0-0.125 0-0.186v0.012l-0.473-509.154c0-0.034 0-0.081 0-0.128 0-30.958 15.228-58.351 38.602-75.113l0.279-0.189 263.52-186.84h43.2c37.152 26.311 263.52 186.84 263.52 186.84 23.651 16.947 38.88 44.35 38.88 75.303 0 0.042 0 0.084 0 0.135v-0.009z" />
<glyph unicode="&#x1f5a0;" glyph-name="uni1F5A0" horiz-adv-x="847" d="M315.774 750.4h86.401v-432h-86.401zM445.375 750.4h86.401v-432h-86.401z" />
<glyph unicode="&#x1f5b3;" glyph-name="desktop" d="M984 882h-944c-22.094 0-40-17.906-40-40v-629.336c0-22.094 17.906-40 40-40h249.945l-49.719-99.445c-13.273-26.539 6.047-57.883 35.773-57.883h472c29.68 0 49.070 31.297 35.781 57.883l-49.727 99.445h249.945c22.094 0 40 17.906 40 40v629.336c0 22.094-17.906 40-40 40zM683.281 95.328h-342.563l38.672 77.336h265.219zM944 252.664h-864v549.336h864z" />
<glyph unicode="&#x1f5bd;" glyph-name="diagram" horiz-adv-x="960" d="M64 256h192c35.346 0 64-28.654 64-64v0-192c0-35.346-28.654-64-64-64v0h-192c-35.346 0-64 28.654-64 64v0 192c0 35.346 28.654 64 64 64v0zM384 960h192c35.346 0 64-28.654 64-64v0-192c0-35.346-28.654-64-64-64v0h-192c-35.346 0-64 28.654-64 64v0 192c0 35.346 28.654 64 64 64v0zM192 448h576v-64h-576v64zM704 256h192c35.346 0 64-28.654 64-64v0-192c0-35.346-28.654-64-64-64v0h-192c-35.346 0-64 28.654-64 64v0 192c0 35.346 28.654 64 64 64v0zM128 448h64v-192h-64v192zM448 640h64v-192h-64v192zM768 448h64v-192h-64v192z" />
<glyph unicode="&#x1f5c7;" glyph-name="enrol" d="M0 302.526h366.526v-366.526h-366.526v366.526zM183.263 888.967c101.213 0 183.263-82.050 183.263-183.263s-82.050-183.263-183.263-183.263c-101.213 0-183.263 82.050-183.263 183.263v0c0 101.213 82.050 183.263 183.263 183.263v0zM769.118 960.733l255.542-255.542-255.542-255.542-255.542 255.542zM769.704 302.526c101.213 0 183.263-82.050 183.263-183.263s-82.050-183.263-183.263-183.263c-101.213 0-183.263 82.050-183.263 183.263v0c0 101.213 82.050 183.263 183.263 183.263v0zM146.61 595.747h73.305v-293.221h-73.305v293.221zM733.052 522.441h73.305v-293.221h-73.305v293.221zM293.221 742.357h293.221v-73.305h-293.221v73.305z" />
<glyph unicode="&#x1f5d6;" glyph-name="full-screen" d="M0 329.846h157.538v-236.308h236.308v-157.538h-393.846v393.846zM0 566.154h157.538v236.308h236.308v157.538h-393.846v-393.846zM1024 329.846h-157.538v-236.308h-236.308v-157.538h393.846v393.846zM1024 566.154h-157.538v236.308h-236.308v157.538h393.846v-393.846z" />
<glyph unicode="&#x1f5da;" glyph-name="text" d="M54.613 973.653h887.467c6.827 0 20.48 0 27.307-6.827 0 0 0-20.48 0-27.307l-6.827-204.8-6.827-13.653h-47.787l-6.827 20.48-13.653 109.227c0 13.653-27.307 27.307-34.133 27.307h-245.76l6.827-839.68c0-6.827 13.653-34.133 20.48-34.133l88.747-6.827 6.827-6.827v-47.787l-6.827-6.827h-204.8c0 0 0 0 0 0l-245.76-6.827-6.827 6.827v47.787l6.827 13.653h75.093c27.307 0 34.133 34.133 34.133 54.613l13.653 826.027-245.76-6.827c-13.653 0-34.133-13.653-34.133-27.307l-13.653-116.053-6.827-6.827h-47.787l-6.827 13.653-13.653 225.28c0 6.827 13.653 13.653 27.307 13.653z" />
<glyph unicode="&#x1f5e1;" glyph-name="exclamation" horiz-adv-x="205" d="M0 960v-614.4h204.8v614.4h-204.8zM0-64h204.8v204.8h-204.8v-204.8z" />
<glyph unicode="&#x1f5f4;" glyph-name="remove" d="M994.558 933.688c17.694-17.7 28.638-42.149 28.638-69.154s-10.944-51.454-28.638-69.154l-830.037-829.94c-17.887-19.014-43.212-30.855-71.302-30.855-54.020 0-97.813 43.792-97.813 97.813 0 28.115 11.862 53.459 30.854 71.301l0.052 0.048 829.842 829.94c17.704 17.724 42.173 28.687 69.202 28.687s51.498-10.964 69.201-28.686l0.001-0.001zM26.214 933.688c17.695 17.665 42.124 28.589 69.105 28.589s51.41-10.924 69.106-28.591l830.037-829.939c17.69-17.702 28.63-42.15 28.63-69.154 0-54.031-43.801-97.832-97.832-97.832-27.028 0-51.496 10.96-69.202 28.678l-829.843 829.94c-17.665 17.695-28.589 42.124-28.589 69.105 0 27.029 10.964 51.498 28.686 69.202l0.001 0.001z" />
<glyph unicode="&#x1f5f8;" glyph-name="check" horiz-adv-x="1212" d="M1211.738 772.395l-836.395-836.395-375.343 375.343 187.605 187.605 187.738-187.738 648.789 648.79z" />
<glyph unicode="&#x1f6e7;" glyph-name="send" horiz-adv-x="1317" d="M589.605 192v-256l336.896 256h-336.896zM1010.688-64l-421.083 256 726.967 768zM438.857 228.571l-438.857 146.286 1316.571 585.143z" />
</font>
</defs>
</svg>
